STARTFONT 2.1
FONT -Adobe-Utopia-Bold-R-Normal--15-140-75-75-P-82-ISO10646-1
SIZE 14 75 75
FONTBOUNDINGBOX 20 22 -2 -6
COMMENT $XFree86$
COMMENT ISO10646-1 extension by Markus Kuhn <mkuhn@acm.org>, 2001-03-20
STARTPROPERTIES 28
FOUNDRY "Adobe"
FAMILY_NAME "Utopia"
WEIGHT_NAME "Bold"
SLANT "R"
SETWIDTH_NAME "Normal"
ADD_STYLE_NAME ""
PIXEL_SIZE 15
POINT_SIZE 140
RESOLUTION_X 75
RESOLUTION_Y 75
SPACING "P"
AVERAGE_WIDTH 82
CHARSET_REGISTRY "ISO10646"
CHARSET_ENCODING "1"
CAP_HEIGHT 10
X_HEIGHT 7
RELATIVE_SETWIDTH 50
RELATIVE_WEIGHT 70
WEIGHT 218
FACE_NAME "Utopia Bold"
COPYRIGHT "Copyright (c) 1989, 1991 Adobe Systems Incorporated.  All rights reserved."
NOTICE "Utopia is a registered trademark of Adobe Systems Incorporated."
DESTINATION 0
FONT_ASCENT 12
FONT_DESCENT 3
DEFAULT_CHAR 0
_ADOBE_PSFONT "Utopia-Bold"
_DEC_DEVICE_FONTNAMES "PS=Utopia-Bold"
ENDPROPERTIES
CHARS 756
STARTCHAR char0
ENCODING 0
SWIDTH 807 0
DWIDTH 12 0
BBX 11 9 0 0
BITMAP
AAA0
0000
8020
0000
8020
0000
8020
0000
AAA0
ENDCHAR
STARTCHAR space
ENCODING 32
SWIDTH 210 0
DWIDTH 3 0
BBX 0 0 0 0
BITMAP
ENDCHAR
STARTCHAR exclam
ENCODING 33
SWIDTH 278 0
DWIDTH 4 0
BBX 2 10 1 0
BITMAP
C0
C0
C0
C0
C0
C0
C0
00
C0
C0
ENDCHAR
STARTCHAR quotedbl
ENCODING 34
SWIDTH 473 0
DWIDTH 7 0
BBX 5 5 1 5
BITMAP
D8
D8
D8
90
90
ENDCHAR
STARTCHAR numbersign
ENCODING 35
SWIDTH 560 0
DWIDTH 8 0
BBX 8 9 0 1
BITMAP
36
36
7F
36
6C
6C
FE
6C
6C
ENDCHAR
STARTCHAR dollar
ENCODING 36
SWIDTH 560 0
DWIDTH 8 0
BBX 7 12 0 -1
BITMAP
10
7C
DE
D6
F0
FC
7E
1E
D6
F6
7C
10
ENDCHAR
STARTCHAR percent
ENCODING 37
SWIDTH 887 0
DWIDTH 13 0
BBX 11 10 1 0
BITMAP
7080
DF80
D900
DA00
7400
05C0
0B60
1360
2360
21C0
ENDCHAR
STARTCHAR ampersand
ENCODING 38
SWIDTH 748 0
DWIDTH 11 0
BBX 10 10 0 0
BITMAP
1E00
3300
3300
1A00
3CC0
6CC0
E680
E700
7380
3DC0
ENDCHAR
STARTCHAR quotesingle
ENCODING 39
SWIDTH 252 0
DWIDTH 4 0
BBX 2 5 1 5
BITMAP
C0
C0
C0
80
80
ENDCHAR
STARTCHAR parenleft
ENCODING 40
SWIDTH 365 0
DWIDTH 5 0
BBX 4 12 0 -2
BITMAP
30
60
60
C0
C0
C0
C0
C0
C0
60
60
30
ENDCHAR
STARTCHAR parenright
ENCODING 41
SWIDTH 365 0
DWIDTH 5 0
BBX 4 12 0 -2
BITMAP
C0
60
60
30
30
30
30
30
30
60
60
C0
ENDCHAR
STARTCHAR asterisk
ENCODING 42
SWIDTH 442 0
DWIDTH 6 0
BBX 5 5 0 5
BITMAP
20
A8
70
A8
20
ENDCHAR
STARTCHAR plus
ENCODING 43
SWIDTH 600 0
DWIDTH 9 0
BBX 8 7 0 0
BITMAP
18
18
18
FF
18
18
18
ENDCHAR
STARTCHAR comma
ENCODING 44
SWIDTH 280 0
DWIDTH 4 0
BBX 3 4 0 -2
BITMAP
60
60
40
80
ENDCHAR
STARTCHAR hyphen
ENCODING 45
SWIDTH 392 0
DWIDTH 6 0
BBX 4 1 1 3
BITMAP
F0
ENDCHAR
STARTCHAR period
ENCODING 46
SWIDTH 280 0
DWIDTH 4 0
BBX 2 2 1 0
BITMAP
C0
C0
ENDCHAR
STARTCHAR slash
ENCODING 47
SWIDTH 378 0
DWIDTH 5 0
BBX 4 11 0 -1
BITMAP
10
10
10
20
20
20
40
40
40
80
80
ENDCHAR
STARTCHAR zero
ENCODING 48
SWIDTH 560 0
DWIDTH 8 0
BBX 7 10 0 0
BITMAP
38
6C
EE
EE
EE
EE
EE
EE
6C
38
ENDCHAR
STARTCHAR one
ENCODING 49
SWIDTH 560 0
DWIDTH 8 0
BBX 5 10 1 0
BITMAP
70
F0
70
70
70
70
70
70
70
F8
ENDCHAR
STARTCHAR two
ENCODING 50
SWIDTH 560 0
DWIDTH 8 0
BBX 7 10 0 0
BITMAP
7C
EE
CE
0E
1C
38
60
E2
FE
FE
ENDCHAR
STARTCHAR three
ENCODING 51
SWIDTH 560 0
DWIDTH 8 0
BBX 7 10 0 0
BITMAP
7C
EE
CE
0E
3C
0E
0E
CE
EE
7C
ENDCHAR
STARTCHAR four
ENCODING 52
SWIDTH 560 0
DWIDTH 8 0
BBX 7 10 0 0
BITMAP
38
38
30
64
6C
5C
9C
FE
1C
3E
ENDCHAR
STARTCHAR five
ENCODING 53
SWIDTH 560 0
DWIDTH 8 0
BBX 7 10 0 0
BITMAP
FE
FC
C0
FC
9E
0E
0E
CE
EE
7C
ENDCHAR
STARTCHAR six
ENCODING 54
SWIDTH 560 0
DWIDTH 8 0
BBX 7 10 0 0
BITMAP
3C
6E
E6
E0
FC
EE
EE
EE
6E
3C
ENDCHAR
STARTCHAR seven
ENCODING 55
SWIDTH 560 0
DWIDTH 8 0
BBX 7 10 0 0
BITMAP
FE
FE
0C
0C
18
18
38
30
70
70
ENDCHAR
STARTCHAR eight
ENCODING 56
SWIDTH 560 0
DWIDTH 8 0
BBX 7 10 0 0
BITMAP
7C
EE
EE
EE
7C
EE
EE
EE
EE
7C
ENDCHAR
STARTCHAR nine
ENCODING 57
SWIDTH 560 0
DWIDTH 8 0
BBX 7 10 0 0
BITMAP
78
EC
EE
EE
EE
7E
0E
CE
EC
78
ENDCHAR
STARTCHAR colon
ENCODING 58
SWIDTH 280 0
DWIDTH 4 0
BBX 2 7 1 0
BITMAP
C0
C0
00
00
00
C0
C0
ENDCHAR
STARTCHAR semicolon
ENCODING 59
SWIDTH 280 0
DWIDTH 4 0
BBX 3 9 0 -2
BITMAP
60
60
00
00
00
60
60
40
80
ENDCHAR
STARTCHAR less
ENCODING 60
SWIDTH 600 0
DWIDTH 9 0
BBX 8 7 0 0
BITMAP
03
0C
30
C0
30
0C
03
ENDCHAR
STARTCHAR equal
ENCODING 61
SWIDTH 600 0
DWIDTH 9 0
BBX 7 4 1 2
BITMAP
FE
00
00
FE
ENDCHAR
STARTCHAR greater
ENCODING 62
SWIDTH 600 0
DWIDTH 9 0
BBX 8 7 0 0
BITMAP
C0
30
0C
03
0C
30
C0
ENDCHAR
STARTCHAR question
ENCODING 63
SWIDTH 456 0
DWIDTH 7 0
BBX 5 10 1 0
BITMAP
70
D8
D8
10
20
60
70
00
60
60
ENDCHAR
STARTCHAR at
ENCODING 64
SWIDTH 833 0
DWIDTH 13 0
BBX 12 10 0 0
BITMAP
0FC0
3020
6790
CD90
D990
DB10
DB20
CDC0
6000
1F80
ENDCHAR
STARTCHAR A
ENCODING 65
SWIDTH 644 0
DWIDTH 9 0
BBX 10 10 -1 0
BITMAP
0C00
0C00
1E00
1E00
2700
2700
3F00
4380
4380
E7C0
ENDCHAR
STARTCHAR B
ENCODING 66
SWIDTH 683 0
DWIDTH 10 0
BBX 9 10 0 0
BITMAP
FF00
7380
7380
7380
7F00
7380
7380
7380
7380
FF00
ENDCHAR
STARTCHAR C
ENCODING 67
SWIDTH 689 0
DWIDTH 10 0
BBX 9 10 0 0
BITMAP
1F00
7180
6080
E000
E000
E000
E000
6080
7180
1F00
ENDCHAR
STARTCHAR D
ENCODING 68
SWIDTH 777 0
DWIDTH 11 0
BBX 10 10 0 0
BITMAP
FE00
7380
7180
71C0
71C0
71C0
71C0
7180
7380
FE00
ENDCHAR
STARTCHAR E
ENCODING 69
SWIDTH 629 0
DWIDTH 9 0
BBX 8 10 0 0
BITMAP
FF
71
70
72
7E
72
70
71
71
FF
ENDCHAR
STARTCHAR F
ENCODING 70
SWIDTH 593 0
DWIDTH 9 0
BBX 8 10 0 0
BITMAP
FF
71
70
72
7E
72
70
70
70
F8
ENDCHAR
STARTCHAR G
ENCODING 71
SWIDTH 726 0
DWIDTH 10 0
BBX 10 10 0 0
BITMAP
1F00
7180
6080
E000
E000
E000
E7C0
6380
7380
1F00
ENDCHAR
STARTCHAR H
ENCODING 72
SWIDTH 807 0
DWIDTH 12 0
BBX 11 10 0 0
BITMAP
FBE0
71C0
71C0
71C0
7FC0
71C0
71C0
71C0
71C0
FBE0
ENDCHAR
STARTCHAR I
ENCODING 73
SWIDTH 384 0
DWIDTH 6 0
BBX 5 10 0 0
BITMAP
F8
70
70
70
70
70
70
70
70
F8
ENDCHAR
STARTCHAR J
ENCODING 74
SWIDTH 386 0
DWIDTH 6 0
BBX 5 12 0 -2
BITMAP
F8
70
70
70
70
70
70
70
70
70
60
C0
ENDCHAR
STARTCHAR K
ENCODING 75
SWIDTH 707 0
DWIDTH 10 0
BBX 10 10 0 0
BITMAP
FBC0
7180
7300
7600
7C00
7E00
7700
7300
7380
F9C0
ENDCHAR
STARTCHAR L
ENCODING 76
SWIDTH 585 0
DWIDTH 9 0
BBX 8 10 0 0
BITMAP
F8
70
70
70
70
70
70
71
71
FF
ENDCHAR
STARTCHAR M
ENCODING 77
SWIDTH 918 0
DWIDTH 13 0
BBX 13 10 0 0
BITMAP
F078
7070
78F0
78F0
5D70
5D70
4E70
4E70
4470
E0F8
ENDCHAR
STARTCHAR N
ENCODING 78
SWIDTH 739 0
DWIDTH 11 0
BBX 10 10 0 0
BITMAP
F1C0
7880
7880
5C80
5C80
4E80
4E80
4780
4780
E380
ENDCHAR
STARTCHAR O
ENCODING 79
SWIDTH 768 0
DWIDTH 11 0
BBX 10 10 0 0
BITMAP
1E00
7380
6180
E1C0
E1C0
E1C0
E1C0
6180
7380
1E00
ENDCHAR
STARTCHAR P
ENCODING 80
SWIDTH 650 0
DWIDTH 9 0
BBX 9 10 0 0
BITMAP
FF00
7380
7380
7380
7380
7F00
7000
7000
7000
F800
ENDCHAR
STARTCHAR Q
ENCODING 81
SWIDTH 768 0
DWIDTH 11 0
BBX 10 13 0 -3
BITMAP
1E00
7380
6180
E1C0
E1C0
E1C0
E1C0
6180
7380
1E00
0600
0700
03C0
ENDCHAR
STARTCHAR R
ENCODING 82
SWIDTH 684 0
DWIDTH 10 0
BBX 10 10 0 0
BITMAP
FF00
7380
7380
7300
7E00
7700
7700
7380
7380
FBC0
ENDCHAR
STARTCHAR S
ENCODING 83
SWIDTH 561 0
DWIDTH 8 0
BBX 7 10 0 0
BITMAP
7C
E6
E2
F0
7C
1E
0E
8E
CE
7C
ENDCHAR
STARTCHAR T
ENCODING 84
SWIDTH 624 0
DWIDTH 9 0
BBX 9 10 0 0
BITMAP
FF80
9C80
9C80
1C00
1C00
1C00
1C00
1C00
1C00
3E00
ENDCHAR
STARTCHAR U
ENCODING 85
SWIDTH 786 0
DWIDTH 12 0
BBX 11 10 0 0
BITMAP
FBE0
71C0
71C0
71C0
71C0
71C0
71C0
71C0
3180
1F00
ENDCHAR
STARTCHAR V
ENCODING 86
SWIDTH 645 0
DWIDTH 9 0
BBX 10 10 -1 0
BITMAP
F9C0
7080
7080
3900
3900
3900
1E00
1E00
0C00
0C00
ENDCHAR
STARTCHAR W
ENCODING 87
SWIDTH 933 0
DWIDTH 14 0
BBX 15 10 -1 0
BITMAP
F9CE
71C4
71C4
3AE4
3AE8
3AE8
3AE8
1C70
1C70
1C70
ENDCHAR
STARTCHAR X
ENCODING 88
SWIDTH 634 0
DWIDTH 9 0
BBX 9 10 0 0
BITMAP
FB80
7100
3A00
3A00
1C00
1C00
2E00
2E00
4700
EF80
ENDCHAR
STARTCHAR Y
ENCODING 89
SWIDTH 617 0
DWIDTH 9 0
BBX 9 10 0 0
BITMAP
FB80
7100
7100
3A00
3A00
1C00
1C00
1C00
1C00
3E00
ENDCHAR
STARTCHAR Z
ENCODING 90
SWIDTH 614 0
DWIDTH 9 0
BBX 8 10 0 0
BITMAP
FF
87
8E
1C
1C
38
38
71
E1
FF
ENDCHAR
STARTCHAR bracketleft
ENCODING 91
SWIDTH 335 0
DWIDTH 5 0
BBX 3 12 1 -2
BITMAP
E0
C0
C0
C0
C0
C0
C0
C0
C0
C0
C0
E0
ENDCHAR
STARTCHAR backslash
ENCODING 92
SWIDTH 379 0
DWIDTH 5 0
BBX 4 11 0 -1
BITMAP
80
80
80
40
40
40
20
20
20
10
10
ENDCHAR
STARTCHAR bracketright
ENCODING 93
SWIDTH 335 0
DWIDTH 5 0
BBX 3 12 0 -2
BITMAP
E0
60
60
60
60
60
60
60
60
60
60
E0
ENDCHAR
STARTCHAR asciicircum
ENCODING 94
SWIDTH 600 0
DWIDTH 9 0
BBX 7 8 1 2
BITMAP
10
10
28
28
44
44
82
82
ENDCHAR
STARTCHAR underscore
ENCODING 95
SWIDTH 500 0
DWIDTH 7 0
BBX 7 1 0 -2
BITMAP
FE
ENDCHAR
STARTCHAR grave
ENCODING 96
SWIDTH 430 0
DWIDTH 6 0
BBX 3 2 1 8
BITMAP
C0
60
ENDCHAR
STARTCHAR a
ENCODING 97
SWIDTH 544 0
DWIDTH 8 0
BBX 7 7 1 0
BITMAP
78
DC
1C
7C
DC
DC
7E
ENDCHAR
STARTCHAR b
ENCODING 98
SWIDTH 605 0
DWIDTH 9 0
BBX 9 11 0 0
BITMAP
F000
7000
7000
7000
7600
7B00
7380
7380
7380
7300
7E00
ENDCHAR
STARTCHAR c
ENCODING 99
SWIDTH 494 0
DWIDTH 7 0
BBX 6 7 0 0
BITMAP
3C
6C
E4
E0
E0
64
3C
ENDCHAR
STARTCHAR d
ENCODING 100
SWIDTH 605 0
DWIDTH 9 0
BBX 9 11 0 0
BITMAP
0F00
0700
0700
0700
3700
6F00
E700
E700
E700
6700
3F80
ENDCHAR
STARTCHAR e
ENCODING 101
SWIDTH 519 0
DWIDTH 7 0
BBX 6 7 0 0
BITMAP
38
6C
FC
E0
E0
64
3C
ENDCHAR
STARTCHAR f
ENCODING 102
SWIDTH 342 0
DWIDTH 5 0
BBX 6 11 0 0
BITMAP
38
6C
6C
70
F8
70
70
70
70
70
F8
ENDCHAR
STARTCHAR g
ENCODING 103
SWIDTH 533 0
DWIDTH 8 0
BBX 8 10 0 -3
BITMAP
7F
EE
EE
EC
78
30
7E
CF
E7
7E
ENDCHAR
STARTCHAR h
ENCODING 104
SWIDTH 631 0
DWIDTH 10 0
BBX 10 11 0 0
BITMAP
F000
7000
7000
7000
7700
7B80
7380
7380
7380
7380
FBC0
ENDCHAR
STARTCHAR i
ENCODING 105
SWIDTH 316 0
DWIDTH 5 0
BBX 5 11 0 0
BITMAP
60
F0
60
00
F0
70
70
70
70
70
F8
ENDCHAR
STARTCHAR j
ENCODING 106
SWIDTH 316 0
DWIDTH 5 0
BBX 4 14 0 -3
BITMAP
60
F0
60
00
F0
70
70
70
70
70
70
70
70
E0
ENDCHAR
STARTCHAR k
ENCODING 107
SWIDTH 582 0
DWIDTH 9 0
BBX 9 11 0 0
BITMAP
F000
7000
7000
7000
7700
7600
7C00
7C00
7E00
7700
F380
ENDCHAR
STARTCHAR l
ENCODING 108
SWIDTH 309 0
DWIDTH 5 0
BBX 5 11 0 0
BITMAP
F0
70
70
70
70
70
70
70
70
70
F8
ENDCHAR
STARTCHAR m
ENCODING 109
SWIDTH 948 0
DWIDTH 15 0
BBX 15 7 0 0
BITMAP
F738
7BDC
739C
739C
739C
739C
FBDE
ENDCHAR
STARTCHAR n
ENCODING 110
SWIDTH 638 0
DWIDTH 10 0
BBX 10 7 0 0
BITMAP
F700
7B80
7380
7380
7380
7380
FBC0
ENDCHAR
STARTCHAR o
ENCODING 111
SWIDTH 585 0
DWIDTH 9 0
BBX 8 7 0 0
BITMAP
3C
66
E7
E7
E7
66
3C
ENDCHAR
STARTCHAR p
ENCODING 112
SWIDTH 615 0
DWIDTH 9 0
BBX 9 10 0 -3
BITMAP
F600
7B00
7380
7380
7380
7300
7E00
7000
7000
F800
ENDCHAR
STARTCHAR q
ENCODING 113
SWIDTH 597 0
DWIDTH 9 0
BBX 9 11 0 -3
BITMAP
0100
3B00
6700
E700
E700
E700
6700
3F00
0700
0700
0F80
ENDCHAR
STARTCHAR r
ENCODING 114
SWIDTH 440 0
DWIDTH 6 0
BBX 6 7 0 0
BITMAP
EC
7C
70
70
70
70
F8
ENDCHAR
STARTCHAR s
ENCODING 115
SWIDTH 446 0
DWIDTH 7 0
BBX 6 7 0 0
BITMAP
7C
E4
F0
78
3C
9C
F8
ENDCHAR
STARTCHAR t
ENCODING 116
SWIDTH 370 0
DWIDTH 5 0
BBX 5 9 0 0
BITMAP
30
70
F8
70
70
70
70
70
38
ENDCHAR
STARTCHAR u
ENCODING 117
SWIDTH 629 0
DWIDTH 10 0
BBX 10 7 0 0
BITMAP
F780
7380
7380
7380
7380
7780
3BC0
ENDCHAR
STARTCHAR v
ENCODING 118
SWIDTH 520 0
DWIDTH 7 0
BBX 8 7 -1 0
BITMAP
F7
72
72
3C
3C
18
18
ENDCHAR
STARTCHAR w
ENCODING 119
SWIDTH 774 0
DWIDTH 11 0
BBX 12 7 -1 0
BITMAP
F370
7320
77A0
77A0
39C0
39C0
39C0
ENDCHAR
STARTCHAR x
ENCODING 120
SWIDTH 522 0
DWIDTH 8 0
BBX 8 7 0 0
BITMAP
F7
72
3C
3C
3C
4E
EF
ENDCHAR
STARTCHAR y
ENCODING 121
SWIDTH 524 0
DWIDTH 8 0
BBX 8 10 0 -3
BITMAP
F7
72
72
3C
3C
18
18
10
F0
60
ENDCHAR
STARTCHAR z
ENCODING 122
SWIDTH 483 0
DWIDTH 7 0
BBX 7 7 0 0
BITMAP
FE
DC
9C
38
72
76
FE
ENDCHAR
STARTCHAR braceleft
ENCODING 123
SWIDTH 365 0
DWIDTH 5 0
BBX 4 12 0 -2
BITMAP
30
60
60
60
60
C0
60
60
60
60
60
30
ENDCHAR
STARTCHAR bar
ENCODING 124
SWIDTH 284 0
DWIDTH 4 0
BBX 2 10 1 0
BITMAP
C0
C0
C0
C0
C0
C0
C0
C0
C0
C0
ENDCHAR
STARTCHAR braceright
ENCODING 125
SWIDTH 365 0
DWIDTH 5 0
BBX 4 12 0 -2
BITMAP
C0
60
60
60
60
30
60
60
60
60
60
C0
ENDCHAR
STARTCHAR asciitilde
ENCODING 126
SWIDTH 600 0
DWIDTH 8 0
BBX 8 3 0 3
BITMAP
31
7E
8C
ENDCHAR
STARTCHAR space
ENCODING 160
SWIDTH 210 0
DWIDTH 3 0
BBX 0 0 0 0
BITMAP
ENDCHAR
STARTCHAR exclamdown
ENCODING 161
SWIDTH 278 0
DWIDTH 4 0
BBX 2 10 1 -3
BITMAP
C0
C0
00
C0
C0
C0
C0
C0
C0
C0
ENDCHAR
STARTCHAR cent
ENCODING 162
SWIDTH 560 0
DWIDTH 8 0
BBX 7 9 0 1
BITMAP
08
3C
6E
EE
E8
E8
7A
3C
08
ENDCHAR
STARTCHAR sterling
ENCODING 163
SWIDTH 560 0
DWIDTH 8 0
BBX 7 10 0 0
BITMAP
7C
EE
E6
E0
70
FE
70
62
FE
FE
ENDCHAR
STARTCHAR currency
ENCODING 164
SWIDTH 560 0
DWIDTH 8 0
BBX 7 9 0 1
BITMAP
C6
7C
C6
82
82
82
C6
7C
C6
ENDCHAR
STARTCHAR yen
ENCODING 165
SWIDTH 560 0
DWIDTH 8 0
BBX 9 10 -1 0
BITMAP
FB80
7100
3A00
3A00
7F00
1C00
7F00
1C00
1C00
3E00
ENDCHAR
STARTCHAR brokenbar
ENCODING 166
SWIDTH 284 0
DWIDTH 4 0
BBX 2 10 1 0
BITMAP
C0
C0
C0
C0
00
00
C0
C0
C0
C0
ENDCHAR
STARTCHAR section
ENCODING 167
SWIDTH 566 0
DWIDTH 8 0
BBX 7 12 0 -2
BITMAP
38
6C
60
70
BC
CE
E6
7A
1C
0C
6C
38
ENDCHAR
STARTCHAR dieresis
ENCODING 168
SWIDTH 430 0
DWIDTH 6 0
BBX 5 2 1 8
BITMAP
D8
D8
ENDCHAR
STARTCHAR copyright
ENCODING 169
SWIDTH 800 0
DWIDTH 12 0
BBX 10 10 1 0
BITMAP
1E00
6180
DEC0
B240
A040
A040
B240
DCC0
6180
1E00
ENDCHAR
STARTCHAR ordfeminine
ENCODING 170
SWIDTH 405 0
DWIDTH 6 0
BBX 6 5 0 4
BITMAP
70
D8
78
D8
7C
ENDCHAR
STARTCHAR guillemotleft
ENCODING 171
SWIDTH 487 0
DWIDTH 7 0
BBX 7 6 0 0
BITMAP
36
6C
D8
D8
6C
36
ENDCHAR
STARTCHAR logicalnot
ENCODING 172
SWIDTH 600 0
DWIDTH 9 0
BBX 7 4 1 2
BITMAP
FE
06
06
06
ENDCHAR
STARTCHAR hyphen
ENCODING 173
SWIDTH 392 0
DWIDTH 6 0
BBX 4 1 1 3
BITMAP
F0
ENDCHAR
STARTCHAR registered
ENCODING 174
SWIDTH 800 0
DWIDTH 12 0
BBX 10 10 1 0
BITMAP
1E00
6180
DCC0
9240
9640
9C40
9640
D2C0
6180
1E00
ENDCHAR
STARTCHAR macron
ENCODING 175
SWIDTH 430 0
DWIDTH 6 0
BBX 5 1 0 8
BITMAP
F8
ENDCHAR
STARTCHAR degree
ENCODING 176
SWIDTH 396 0
DWIDTH 6 0
BBX 4 4 1 6
BITMAP
60
90
90
60
ENDCHAR
STARTCHAR plusminus
ENCODING 177
SWIDTH 600 0
DWIDTH 9 0
BBX 8 8 0 0
BITMAP
18
18
18
FF
18
18
18
FF
ENDCHAR
STARTCHAR twosuperior
ENCODING 178
SWIDTH 402 0
DWIDTH 6 0
BBX 4 6 1 4
BITMAP
60
B0
30
60
C0
F0
ENDCHAR
STARTCHAR threesuperior
ENCODING 179
SWIDTH 402 0
DWIDTH 6 0
BBX 4 6 1 4
BITMAP
E0
B0
60
30
B0
E0
ENDCHAR
STARTCHAR acute
ENCODING 180
SWIDTH 430 0
DWIDTH 6 0
BBX 3 2 1 8
BITMAP
60
C0
ENDCHAR
STARTCHAR mu
ENCODING 181
SWIDTH 629 0
DWIDTH 10 0
BBX 10 10 0 -3
BITMAP
F780
7380
7380
7380
7380
7780
7BC0
6000
7000
7000
ENDCHAR
STARTCHAR paragraph
ENCODING 182
SWIDTH 552 0
DWIDTH 8 0
BBX 7 12 0 -2
BITMAP
76
F4
F4
F4
F4
74
04
04
04
04
04
1C
ENDCHAR
STARTCHAR periodcentered
ENCODING 183
SWIDTH 280 0
DWIDTH 4 0
BBX 2 2 1 3
BITMAP
C0
C0
ENDCHAR
STARTCHAR cedilla
ENCODING 184
SWIDTH 430 0
DWIDTH 6 0
BBX 3 3 1 -3
BITMAP
40
20
E0
ENDCHAR
STARTCHAR onesuperior
ENCODING 185
SWIDTH 402 0
DWIDTH 6 0
BBX 4 6 1 4
BITMAP
60
E0
60
60
60
F0
ENDCHAR
STARTCHAR ordmasculine
ENCODING 186
SWIDTH 427 0
DWIDTH 6 0
BBX 5 5 0 4
BITMAP
70
D8
D8
D8
70
ENDCHAR
STARTCHAR guillemotright
ENCODING 187
SWIDTH 487 0
DWIDTH 7 0
BBX 7 6 0 0
BITMAP
D8
6C
36
36
6C
D8
ENDCHAR
STARTCHAR onequarter
ENCODING 188
SWIDTH 900 0
DWIDTH 13 0
BBX 12 10 0 0
BITMAP
6100
E100
6200
6200
64C0
F4C0
09A0
0960
13F0
1060
ENDCHAR
STARTCHAR onehalf
ENCODING 189
SWIDTH 900 0
DWIDTH 13 0
BBX 12 10 0 0
BITMAP
6080
E080
6100
6100
6260
F2B0
0430
0460
08C0
08F0
ENDCHAR
STARTCHAR threequarters
ENCODING 190
SWIDTH 900 0
DWIDTH 13 0
BBX 12 10 0 0
BITMAP
E100
B100
6200
3200
B4C0
E4C0
09A0
0960
13F0
1060
ENDCHAR
STARTCHAR questiondown
ENCODING 191
SWIDTH 456 0
DWIDTH 7 0
BBX 5 10 1 -3
BITMAP
30
30
00
70
30
20
40
D8
D8
70
ENDCHAR
STARTCHAR Agrave
ENCODING 192
SWIDTH 644 0
DWIDTH 9 0
BBX 10 12 -1 0
BITMAP
1800
0C00
0000
0C00
0C00
1E00
1E00
2700
3F00
4380
4380
E7C0
ENDCHAR
STARTCHAR Aacute
ENCODING 193
SWIDTH 644 0
DWIDTH 9 0
BBX 10 12 -1 0
BITMAP
0600
0C00
0000
0C00
0C00
1E00
1E00
2700
3F00
4380
4380
E7C0
ENDCHAR
STARTCHAR Acircumflex
ENCODING 194
SWIDTH 644 0
DWIDTH 9 0
BBX 10 12 -1 0
BITMAP
0C00
1600
0000
0C00
0C00
1E00
1E00
2700
3F00
4380
4380
E7C0
ENDCHAR
STARTCHAR Atilde
ENCODING 195
SWIDTH 644 0
DWIDTH 9 0
BBX 10 12 -1 0
BITMAP
1A00
2C00
0000
0C00
0C00
1E00
1E00
2700
3F00
4380
4380
E7C0
ENDCHAR
STARTCHAR Adieresis
ENCODING 196
SWIDTH 644 0
DWIDTH 9 0
BBX 10 12 -1 0
BITMAP
3600
3600
0000
0C00
0C00
1E00
1E00
2700
3F00
4380
4380
E7C0
ENDCHAR
STARTCHAR Aring
ENCODING 197
SWIDTH 644 0
DWIDTH 9 0
BBX 10 12 -1 0
BITMAP
0C00
1200
0C00
0C00
0C00
1E00
1E00
2700
3F00
4380
4380
E7C0
ENDCHAR
STARTCHAR AE
ENCODING 198
SWIDTH 879 0
DWIDTH 13 0
BBX 13 10 -1 0
BITMAP
0FF8
0788
0B88
0B90
13F0
1F90
2380
2388
4388
E7F8
ENDCHAR
STARTCHAR Ccedilla
ENCODING 199
SWIDTH 689 0
DWIDTH 10 0
BBX 9 13 0 -3
BITMAP
1F00
7180
6080
E000
E000
E000
E000
6080
7180
1F00
0800
0400
1C00
ENDCHAR
STARTCHAR Egrave
ENCODING 200
SWIDTH 629 0
DWIDTH 9 0
BBX 8 12 0 0
BITMAP
30
18
00
FF
71
70
72
7E
72
70
71
FF
ENDCHAR
STARTCHAR Eacute
ENCODING 201
SWIDTH 629 0
DWIDTH 9 0
BBX 8 12 0 0
BITMAP
0C
18
00
FF
71
70
72
7E
72
70
71
FF
ENDCHAR
STARTCHAR Ecircumflex
ENCODING 202
SWIDTH 629 0
DWIDTH 9 0
BBX 8 12 0 0
BITMAP
18
2C
00
FF
71
70
72
7E
72
70
71
FF
ENDCHAR
STARTCHAR Edieresis
ENCODING 203
SWIDTH 629 0
DWIDTH 9 0
BBX 8 12 0 0
BITMAP
6C
6C
00
FF
71
70
72
7E
72
70
71
FF
ENDCHAR
STARTCHAR Igrave
ENCODING 204
SWIDTH 384 0
DWIDTH 6 0
BBX 5 12 0 0
BITMAP
60
30
00
F8
70
70
70
70
70
70
70
F8
ENDCHAR
STARTCHAR Iacute
ENCODING 205
SWIDTH 384 0
DWIDTH 6 0
BBX 5 12 0 0
BITMAP
30
60
00
F8
70
70
70
70
70
70
70
F8
ENDCHAR
STARTCHAR Icircumflex
ENCODING 206
SWIDTH 384 0
DWIDTH 6 0
BBX 5 12 0 0
BITMAP
60
B0
00
F8
70
70
70
70
70
70
70
F8
ENDCHAR
STARTCHAR Idieresis
ENCODING 207
SWIDTH 384 0
DWIDTH 6 0
BBX 5 12 0 0
BITMAP
D8
D8
00
F8
70
70
70
70
70
70
70
F8
ENDCHAR
STARTCHAR Eth
ENCODING 208
SWIDTH 783 0
DWIDTH 11 0
BBX 10 10 0 0
BITMAP
FE00
7380
7180
71C0
FDC0
71C0
71C0
7180
7380
FE00
ENDCHAR
STARTCHAR Ntilde
ENCODING 209
SWIDTH 739 0
DWIDTH 11 0
BBX 10 12 0 0
BITMAP
1A00
2C00
0000
F1C0
7880
7880
5C80
5E80
4E80
4780
4780
E380
ENDCHAR
STARTCHAR Ograve
ENCODING 210
SWIDTH 768 0
DWIDTH 11 0
BBX 10 12 0 0
BITMAP
1800
0C00
0000
1E00
7380
6180
E1C0
E1C0
E1C0
6180
7380
1E00
ENDCHAR
STARTCHAR Oacute
ENCODING 211
SWIDTH 768 0
DWIDTH 11 0
BBX 10 12 0 0
BITMAP
0600
0C00
0000
1E00
7380
6180
E1C0
E1C0
E1C0
6180
7380
1E00
ENDCHAR
STARTCHAR Ocircumflex
ENCODING 212
SWIDTH 768 0
DWIDTH 11 0
BBX 10 12 0 0
BITMAP
0C00
1600
0000
1E00
7380
6180
E1C0
E1C0
E1C0
6180
7380
1E00
ENDCHAR
STARTCHAR Otilde
ENCODING 213
SWIDTH 768 0
DWIDTH 11 0
BBX 10 12 0 0
BITMAP
1A00
2C00
0000
1E00
7380
6180
E1C0
E1C0
E1C0
6180
7380
1E00
ENDCHAR
STARTCHAR Odieresis
ENCODING 214
SWIDTH 768 0
DWIDTH 11 0
BBX 10 12 0 0
BITMAP
3600
3600
0000
1E00
7380
6180
E1C0
E1C0
E1C0
6180
7380
1E00
ENDCHAR
STARTCHAR multiply
ENCODING 215
SWIDTH 600 0
DWIDTH 9 0
BBX 8 7 0 0
BITMAP
C3
66
3C
18
3C
66
C3
ENDCHAR
STARTCHAR Oslash
ENCODING 216
SWIDTH 768 0
DWIDTH 11 0
BBX 10 10 0 0
BITMAP
1E80
7380
6380
E5C0
E5C0
E9C0
E9C0
7180
7380
5E00
ENDCHAR
STARTCHAR Ugrave
ENCODING 217
SWIDTH 786 0
DWIDTH 12 0
BBX 11 12 0 0
BITMAP
0C00
0600
0000
FBE0
71C0
71C0
71C0
71C0
71C0
71C0
3180
1F00
ENDCHAR
STARTCHAR Uacute
ENCODING 218
SWIDTH 786 0
DWIDTH 12 0
BBX 11 12 0 0
BITMAP
0600
0C00
0000
FBE0
71C0
71C0
71C0
71C0
71C0
71C0
3180
1F00
ENDCHAR
STARTCHAR Ucircumflex
ENCODING 219
SWIDTH 786 0
DWIDTH 12 0
BBX 11 12 0 0
BITMAP
0C00
1600
0000
FBE0
71C0
71C0
71C0
71C0
71C0
71C0
3180
1F00
ENDCHAR
STARTCHAR Udieresis
ENCODING 220
SWIDTH 786 0
DWIDTH 12 0
BBX 11 12 0 0
BITMAP
1B00
1B00
0000
FBE0
71C0
71C0
71C0
71C0
71C0
71C0
3180
1F00
ENDCHAR
STARTCHAR Yacute
ENCODING 221
SWIDTH 617 0
DWIDTH 9 0
BBX 9 12 0 0
BITMAP
0600
0C00
0000
FB80
7100
7100
3A00
3A00
1C00
1C00
1C00
3E00
ENDCHAR
STARTCHAR Thorn
ENCODING 222
SWIDTH 640 0
DWIDTH 9 0
BBX 9 10 0 0
BITMAP
F800
7000
7F00
7380
7380
7380
7F00
7000
7000
F800
ENDCHAR
STARTCHAR germandbls
ENCODING 223
SWIDTH 662 0
DWIDTH 10 0
BBX 10 11 0 0
BITMAP
1E00
3300
7300
7200
7600
7700
7780
73C0
71C0
7580
F700
ENDCHAR
STARTCHAR agrave
ENCODING 224
SWIDTH 544 0
DWIDTH 8 0
BBX 7 10 0 0
BITMAP
60
30
00
78
DC
1C
7C
DC
DC
7E
ENDCHAR
STARTCHAR aacute
ENCODING 225
SWIDTH 544 0
DWIDTH 8 0
BBX 7 10 0 0
BITMAP
18
30
00
78
DC
1C
7C
DC
DC
7E
ENDCHAR
STARTCHAR acircumflex
ENCODING 226
SWIDTH 544 0
DWIDTH 8 0
BBX 7 10 0 0
BITMAP
30
58
00
78
DC
1C
7C
DC
DC
7E
ENDCHAR
STARTCHAR atilde
ENCODING 227
SWIDTH 544 0
DWIDTH 8 0
BBX 7 10 0 0
BITMAP
34
58
00
78
DC
1C
7C
DC
DC
7E
ENDCHAR
STARTCHAR adieresis
ENCODING 228
SWIDTH 544 0
DWIDTH 8 0
BBX 7 10 0 0
BITMAP
6C
6C
00
78
DC
1C
7C
DC
DC
7E
ENDCHAR
STARTCHAR aring
ENCODING 229
SWIDTH 544 0
DWIDTH 8 0
BBX 7 11 0 0
BITMAP
30
48
30
00
78
DC
1C
7C
DC
DC
7E
ENDCHAR
STARTCHAR ae
ENCODING 230
SWIDTH 806 0
DWIDTH 12 0
BBX 9 7 1 0
BITMAP
7B00
DD80
1F80
7C00
DC00
DC80
7B80
ENDCHAR
STARTCHAR ccedilla
ENCODING 231
SWIDTH 494 0
DWIDTH 7 0
BBX 6 10 0 -3
BITMAP
3C
6C
E4
E0
E0
64
3C
20
10
70
ENDCHAR
STARTCHAR egrave
ENCODING 232
SWIDTH 519 0
DWIDTH 7 0
BBX 6 10 0 0
BITMAP
60
30
00
38
6C
FC
E0
E0
64
3C
ENDCHAR
STARTCHAR eacute
ENCODING 233
SWIDTH 519 0
DWIDTH 7 0
BBX 6 10 0 0
BITMAP
18
30
00
38
6C
FC
E0
E0
64
3C
ENDCHAR
STARTCHAR ecircumflex
ENCODING 234
SWIDTH 519 0
DWIDTH 7 0
BBX 6 10 0 0
BITMAP
30
58
00
38
6C
FC
E0
E0
64
3C
ENDCHAR
STARTCHAR edieresis
ENCODING 235
SWIDTH 519 0
DWIDTH 7 0
BBX 6 10 0 0
BITMAP
D8
D8
00
38
6C
FC
E0
E0
64
3C
ENDCHAR
STARTCHAR igrave
ENCODING 236
SWIDTH 316 0
DWIDTH 5 0
BBX 5 10 0 0
BITMAP
60
30
00
F0
70
70
70
70
70
F8
ENDCHAR
STARTCHAR iacute
ENCODING 237
SWIDTH 316 0
DWIDTH 5 0
BBX 5 10 0 0
BITMAP
30
60
00
F0
70
70
70
70
70
F8
ENDCHAR
STARTCHAR icircumflex
ENCODING 238
SWIDTH 316 0
DWIDTH 5 0
BBX 5 10 0 0
BITMAP
60
B0
00
F0
70
70
70
70
70
F8
ENDCHAR
STARTCHAR idieresis
ENCODING 239
SWIDTH 316 0
DWIDTH 5 0
BBX 5 10 0 0
BITMAP
D8
D8
00
F0
70
70
70
70
70
F8
ENDCHAR
STARTCHAR eth
ENCODING 240
SWIDTH 585 0
DWIDTH 9 0
BBX 8 11 0 0
BITMAP
6C
38
38
6C
3E
67
E7
E7
E7
66
3C
ENDCHAR
STARTCHAR ntilde
ENCODING 241
SWIDTH 638 0
DWIDTH 10 0
BBX 10 10 0 0
BITMAP
1A00
2C00
0000
F700
7B80
7380
7380
7380
7380
FBC0
ENDCHAR
STARTCHAR ograve
ENCODING 242
SWIDTH 585 0
DWIDTH 9 0
BBX 8 10 0 0
BITMAP
30
18
00
3C
66
E7
E7
E7
66
3C
ENDCHAR
STARTCHAR oacute
ENCODING 243
SWIDTH 585 0
DWIDTH 9 0
BBX 8 10 0 0
BITMAP
18
30
00
3C
66
E7
E7
E7
66
3C
ENDCHAR
STARTCHAR ocircumflex
ENCODING 244
SWIDTH 585 0
DWIDTH 9 0
BBX 8 10 0 0
BITMAP
18
2C
00
3C
66
E7
E7
E7
66
3C
ENDCHAR
STARTCHAR otilde
ENCODING 245
SWIDTH 585 0
DWIDTH 9 0
BBX 8 10 0 0
BITMAP
34
58
00
3C
66
E7
E7
E7
66
3C
ENDCHAR
STARTCHAR odieresis
ENCODING 246
SWIDTH 585 0
DWIDTH 9 0
BBX 8 10 0 0
BITMAP
6C
6C
00
3C
66
E7
E7
E7
66
3C
ENDCHAR
STARTCHAR divide
ENCODING 247
SWIDTH 600 0
DWIDTH 9 0
BBX 8 7 0 0
BITMAP
18
18
00
FF
00
18
18
ENDCHAR
STARTCHAR oslash
ENCODING 248
SWIDTH 585 0
DWIDTH 9 0
BBX 8 7 0 0
BITMAP
3D
66
EF
F7
E7
66
BC
ENDCHAR
STARTCHAR ugrave
ENCODING 249
SWIDTH 629 0
DWIDTH 10 0
BBX 10 10 0 0
BITMAP
1800
0C00
0000
F780
7380
7380
7380
7380
7780
3BC0
ENDCHAR
STARTCHAR uacute
ENCODING 250
SWIDTH 629 0
DWIDTH 10 0
BBX 10 10 0 0
BITMAP
0C00
1800
0000
F780
7380
7380
7380
7380
7780
3BC0
ENDCHAR
STARTCHAR ucircumflex
ENCODING 251
SWIDTH 629 0
DWIDTH 10 0
BBX 10 10 0 0
BITMAP
0C00
1600
0000
F780
7380
7380
7380
7380
7780
3BC0
ENDCHAR
STARTCHAR udieresis
ENCODING 252
SWIDTH 629 0
DWIDTH 10 0
BBX 10 10 0 0
BITMAP
3600
3600
0000
F780
7380
7380
7380
7380
7780
3BC0
ENDCHAR
STARTCHAR yacute
ENCODING 253
SWIDTH 524 0
DWIDTH 7 0
BBX 8 13 -1 -3
BITMAP
0C
18
00
F7
72
72
3C
3C
18
18
10
F0
60
ENDCHAR
STARTCHAR thorn
ENCODING 254
SWIDTH 609 0
DWIDTH 9 0
BBX 9 13 0 -3
BITMAP
F000
7000
7000
7600
7B00
7380
7380
7380
7300
7E00
7000
7000
F800
ENDCHAR
STARTCHAR ydieresis
ENCODING 255
SWIDTH 524 0
DWIDTH 7 0
BBX 8 13 -1 -3
BITMAP
6C
6C
00
F7
72
72
3C
3C
18
18
10
F0
60
ENDCHAR
STARTCHAR Amacron
ENCODING 256
SWIDTH 644 0
DWIDTH 9 0
BBX 10 12 -1 0
BITMAP
1F00
0000
0C00
0C00
1E00
1E00
2700
2700
3F00
4380
4380
E7C0
ENDCHAR
STARTCHAR amacron
ENCODING 257
SWIDTH 544 0
DWIDTH 8 0
BBX 7 9 1 0
BITMAP
7C
00
78
DC
1C
7C
DC
DC
7E
ENDCHAR
STARTCHAR Abreve
ENCODING 258
SWIDTH 644 0
DWIDTH 9 0
BBX 10 13 -1 0
BITMAP
1100
0E00
0000
0C00
0C00
1E00
1E00
2700
2700
3F00
4380
4380
E7C0
ENDCHAR
STARTCHAR abreve
ENCODING 259
SWIDTH 544 0
DWIDTH 8 0
BBX 7 10 1 0
BITMAP
44
38
00
78
DC
1C
7C
DC
DC
7E
ENDCHAR
STARTCHAR Aogonek
ENCODING 260
SWIDTH 644 0
DWIDTH 9 0
BBX 10 13 -1 -3
BITMAP
0C00
0C00
1E00
1E00
2700
2700
3F00
4380
4380
E7C0
0400
0800
0E00
ENDCHAR
STARTCHAR aogonek
ENCODING 261
SWIDTH 544 0
DWIDTH 8 0
BBX 7 10 1 -3
BITMAP
78
DC
1C
7C
DC
DC
7E
10
20
38
ENDCHAR
STARTCHAR Cacute
ENCODING 262
SWIDTH 689 0
DWIDTH 10 0
BBX 9 13 0 0
BITMAP
0600
0C00
0000
1F00
7180
6080
E000
E000
E000
E000
6080
7180
1F00
ENDCHAR
STARTCHAR cacute
ENCODING 263
SWIDTH 494 0
DWIDTH 7 0
BBX 6 10 0 0
BITMAP
18
30
00
3C
6C
E4
E0
E0
64
3C
ENDCHAR
STARTCHAR Ccircumflex
ENCODING 264
SWIDTH 689 0
DWIDTH 10 0
BBX 9 13 0 0
BITMAP
0C00
1600
0000
1F00
7180
6080
E000
E000
E000
E000
6080
7180
1F00
ENDCHAR
STARTCHAR ccircumflex
ENCODING 265
SWIDTH 494 0
DWIDTH 7 0
BBX 6 10 0 0
BITMAP
30
58
00
3C
6C
E4
E0
E0
64
3C
ENDCHAR
STARTCHAR Cdotaccent
ENCODING 266
SWIDTH 689 0
DWIDTH 10 0
BBX 9 13 0 0
BITMAP
0C00
0C00
0000
1F00
7180
6080
E000
E000
E000
E000
6080
7180
1F00
ENDCHAR
STARTCHAR cdotaccent
ENCODING 267
SWIDTH 494 0
DWIDTH 7 0
BBX 6 10 0 0
BITMAP
18
18
00
3C
6C
E4
E0
E0
64
3C
ENDCHAR
STARTCHAR Ccaron
ENCODING 268
SWIDTH 689 0
DWIDTH 10 0
BBX 9 13 0 0
BITMAP
1A00
0C00
0000
1F00
7180
6080
E000
E000
E000
E000
6080
7180
1F00
ENDCHAR
STARTCHAR ccaron
ENCODING 269
SWIDTH 494 0
DWIDTH 7 0
BBX 6 10 0 0
BITMAP
34
18
00
3C
6C
E4
E0
E0
64
3C
ENDCHAR
STARTCHAR Dcaron
ENCODING 270
SWIDTH 777 0
DWIDTH 11 0
BBX 10 13 0 0
BITMAP
1A00
0C00
0000
FE00
7380
7180
71C0
71C0
71C0
71C0
7180
7380
FE00
ENDCHAR
STARTCHAR dcaron
ENCODING 271
SWIDTH 827 0
DWIDTH 13 0
BBX 12 11 0 0
BITMAP
0F00
0730
0730
0720
3740
6F00
E700
E700
E700
6700
3F80
ENDCHAR
STARTCHAR Dcroat
ENCODING 272
SWIDTH 783 0
DWIDTH 11 0
BBX 10 10 0 0
BITMAP
FE00
7380
7180
71C0
FDC0
71C0
71C0
7180
7380
FE00
ENDCHAR
STARTCHAR dcroat
ENCODING 273
SWIDTH 605 0
DWIDTH 9 0
BBX 9 11 0 0
BITMAP
0F00
0700
0F80
0700
3700
6F00
E700
E700
E700
6700
3F80
ENDCHAR
STARTCHAR Emacron
ENCODING 274
SWIDTH 629 0
DWIDTH 9 0
BBX 8 12 0 0
BITMAP
7C
00
FF
71
70
72
7E
72
70
71
71
FF
ENDCHAR
STARTCHAR emacron
ENCODING 275
SWIDTH 519 0
DWIDTH 7 0
BBX 6 9 0 0
BITMAP
7C
00
38
6C
FC
E0
E0
64
3C
ENDCHAR
STARTCHAR Ebreve
ENCODING 276
SWIDTH 629 0
DWIDTH 9 0
BBX 8 13 0 0
BITMAP
44
38
00
FF
71
70
72
7E
72
70
71
71
FF
ENDCHAR
STARTCHAR ebreve
ENCODING 277
SWIDTH 519 0
DWIDTH 7 0
BBX 6 10 0 0
BITMAP
44
38
00
38
6C
FC
E0
E0
64
3C
ENDCHAR
STARTCHAR Edotaccent
ENCODING 278
SWIDTH 629 0
DWIDTH 9 0
BBX 8 13 0 0
BITMAP
18
18
00
FF
71
70
72
7E
72
70
71
71
FF
ENDCHAR
STARTCHAR edotaccent
ENCODING 279
SWIDTH 519 0
DWIDTH 7 0
BBX 6 10 0 0
BITMAP
30
30
00
38
6C
FC
E0
E0
64
3C
ENDCHAR
STARTCHAR Eogonek
ENCODING 280
SWIDTH 629 0
DWIDTH 9 0
BBX 8 13 0 -3
BITMAP
FF
71
70
72
7E
72
70
71
71
FF
10
20
38
ENDCHAR
STARTCHAR eogonek
ENCODING 281
SWIDTH 519 0
DWIDTH 7 0
BBX 6 10 0 -3
BITMAP
38
6C
FC
E0
E0
64
3C
10
20
38
ENDCHAR
STARTCHAR Ecaron
ENCODING 282
SWIDTH 629 0
DWIDTH 9 0
BBX 8 13 0 0
BITMAP
34
18
00
FF
71
70
72
7E
72
70
71
71
FF
ENDCHAR
STARTCHAR ecaron
ENCODING 283
SWIDTH 519 0
DWIDTH 7 0
BBX 6 10 0 0
BITMAP
68
30
00
38
6C
FC
E0
E0
64
3C
ENDCHAR
STARTCHAR Gcircumflex
ENCODING 284
SWIDTH 726 0
DWIDTH 10 0
BBX 10 13 0 0
BITMAP
0C00
1600
0000
1F00
7180
6080
E000
E000
E000
E7C0
6380
7380
1F00
ENDCHAR
STARTCHAR gcircumflex
ENCODING 285
SWIDTH 533 0
DWIDTH 8 0
BBX 8 13 0 -3
BITMAP
18
2C
00
7F
EE
EE
EC
78
30
7E
CF
E7
7E
ENDCHAR
STARTCHAR Gbreve
ENCODING 286
SWIDTH 726 0
DWIDTH 10 0
BBX 10 13 0 0
BITMAP
2200
1C00
0000
1F00
7180
6080
E000
E000
E000
E7C0
6380
7380
1F00
ENDCHAR
STARTCHAR gbreve
ENCODING 287
SWIDTH 533 0
DWIDTH 8 0
BBX 8 13 0 -3
BITMAP
44
38
00
7F
EE
EE
EC
78
30
7E
CF
E7
7E
ENDCHAR
STARTCHAR Gdotaccent
ENCODING 288
SWIDTH 726 0
DWIDTH 10 0
BBX 10 13 0 0
BITMAP
0C00
0C00
0000
1F00
7180
6080
E000
E000
E000
E7C0
6380
7380
1F00
ENDCHAR
STARTCHAR gdotaccent
ENCODING 289
SWIDTH 533 0
DWIDTH 8 0
BBX 8 13 0 -3
BITMAP
18
18
00
7F
EE
EE
EC
78
30
7E
CF
E7
7E
ENDCHAR
STARTCHAR Gcommaaccent
ENCODING 290
SWIDTH 726 0
DWIDTH 10 0
BBX 10 15 0 -5
BITMAP
1F00
7180
6080
E000
E000
E000
E7C0
6380
7380
1F00
0000
0C00
0C00
0800
1000
ENDCHAR
STARTCHAR gcommaaccent
ENCODING 291
SWIDTH 533 0
DWIDTH 8 0
BBX 8 15 0 -3
BITMAP
04
08
18
18
00
7F
EE
EE
EC
78
30
7E
CF
E7
7E
ENDCHAR
STARTCHAR Hcircumflex
ENCODING 292
SWIDTH 807 0
DWIDTH 12 0
BBX 11 13 0 0
BITMAP
0C00
1600
0000
FBE0
71C0
71C0
71C0
7FC0
71C0
71C0
71C0
71C0
FBE0
ENDCHAR
STARTCHAR hcircumflex
ENCODING 293
SWIDTH 631 0
DWIDTH 10 0
BBX 10 14 0 0
BITMAP
3000
5800
0000
F000
7000
7000
7000
7700
7B80
7380
7380
7380
7380
FBC0
ENDCHAR
STARTCHAR Hbar
ENCODING 294
SWIDTH 807 0
DWIDTH 12 0
BBX 11 10 0 0
BITMAP
FBE0
71C0
FFE0
71C0
7FC0
71C0
71C0
71C0
71C0
FBE0
ENDCHAR
STARTCHAR hbar
ENCODING 295
SWIDTH 631 0
DWIDTH 10 0
BBX 10 11 0 0
BITMAP
F000
7000
7C00
7000
7700
7B80
7380
7380
7380
7380
FBC0
ENDCHAR
STARTCHAR Itilde
ENCODING 296
SWIDTH 384 0
DWIDTH 6 0
BBX 5 13 0 0
BITMAP
68
B0
00
F8
70
70
70
70
70
70
70
70
F8
ENDCHAR
STARTCHAR itilde
ENCODING 297
SWIDTH 316 0
DWIDTH 5 0
BBX 5 10 0 0
BITMAP
68
B0
00
F0
70
70
70
70
70
F8
ENDCHAR
STARTCHAR Imacron
ENCODING 298
SWIDTH 384 0
DWIDTH 6 0
BBX 5 12 0 0
BITMAP
F8
00
F8
70
70
70
70
70
70
70
70
F8
ENDCHAR
STARTCHAR imacron
ENCODING 299
SWIDTH 316 0
DWIDTH 5 0
BBX 5 9 0 0
BITMAP
F8
00
F0
70
70
70
70
70
F8
ENDCHAR
STARTCHAR Ibreve
ENCODING 300
SWIDTH 384 0
DWIDTH 6 0
BBX 5 13 0 0
BITMAP
88
70
00
F8
70
70
70
70
70
70
70
70
F8
ENDCHAR
STARTCHAR ibreve
ENCODING 301
SWIDTH 316 0
DWIDTH 5 0
BBX 5 10 0 0
BITMAP
88
70
00
F0
70
70
70
70
70
F8
ENDCHAR
STARTCHAR Iogonek
ENCODING 302
SWIDTH 384 0
DWIDTH 6 0
BBX 5 13 0 -3
BITMAP
F8
70
70
70
70
70
70
70
70
F8
20
40
70
ENDCHAR
STARTCHAR iogonek
ENCODING 303
SWIDTH 316 0
DWIDTH 5 0
BBX 5 14 0 -3
BITMAP
60
F0
60
00
F0
70
70
70
70
70
F8
20
40
70
ENDCHAR
STARTCHAR Idotaccent
ENCODING 304
SWIDTH 384 0
DWIDTH 6 0
BBX 5 13 0 0
BITMAP
30
30
00
F8
70
70
70
70
70
70
70
70
F8
ENDCHAR
STARTCHAR dotlessi
ENCODING 305
SWIDTH 316 0
DWIDTH 5 0
BBX 5 7 0 0
BITMAP
F0
70
70
70
70
70
F8
ENDCHAR
STARTCHAR IJ
ENCODING 306
SWIDTH 751 0
DWIDTH 12 0
BBX 11 12 0 -2
BITMAP
FBE0
71C0
71C0
71C0
71C0
71C0
71C0
71C0
71C0
F9C0
0180
0300
ENDCHAR
STARTCHAR ij
ENCODING 307
SWIDTH 616 0
DWIDTH 10 0
BBX 9 14 0 -3
BITMAP
6300
F780
6300
0000
F780
7380
7380
7380
7380
7380
FB80
0380
0380
0700
ENDCHAR
STARTCHAR Jcircumflex
ENCODING 308
SWIDTH 386 0
DWIDTH 6 0
BBX 5 15 0 -2
BITMAP
60
B0
00
F8
70
70
70
70
70
70
70
70
70
60
C0
ENDCHAR
STARTCHAR jcircumflex
ENCODING 309
SWIDTH 316 0
DWIDTH 5 0
BBX 4 13 0 -3
BITMAP
60
B0
00
F0
70
70
70
70
70
70
70
70
E0
ENDCHAR
STARTCHAR Kcommaaccent
ENCODING 310
SWIDTH 707 0
DWIDTH 10 0
BBX 10 15 0 -5
BITMAP
FBC0
7180
7300
7600
7C00
7E00
7700
7300
7380
F9C0
0000
0C00
0C00
0800
1000
ENDCHAR
STARTCHAR kcommaaccent
ENCODING 311
SWIDTH 582 0
DWIDTH 9 0
BBX 9 16 0 -5
BITMAP
F000
7000
7000
7000
7700
7600
7C00
7C00
7E00
7700
F380
0000
0C00
0C00
0800
1000
ENDCHAR
STARTCHAR kgreenlandic
ENCODING 312
SWIDTH 582 0
DWIDTH 9 0
BBX 9 7 0 0
BITMAP
7700
7600
7C00
7C00
7E00
7700
F380
ENDCHAR
STARTCHAR Lacute
ENCODING 313
SWIDTH 585 0
DWIDTH 9 0
BBX 8 13 0 0
BITMAP
18
30
00
F8
70
70
70
70
70
70
71
71
FF
ENDCHAR
STARTCHAR lacute
ENCODING 314
SWIDTH 309 0
DWIDTH 5 0
BBX 5 14 0 0
BITMAP
30
60
00
F0
70
70
70
70
70
70
70
70
70
F8
ENDCHAR
STARTCHAR Lcommaaccent
ENCODING 315
SWIDTH 585 0
DWIDTH 9 0
BBX 8 15 0 -5
BITMAP
F8
70
70
70
70
70
70
71
71
FF
00
18
18
10
20
ENDCHAR
STARTCHAR lcommaaccent
ENCODING 316
SWIDTH 309 0
DWIDTH 5 0
BBX 5 16 0 -5
BITMAP
F0
70
70
70
70
70
70
70
70
70
F8
00
30
30
20
40
ENDCHAR
STARTCHAR Lcaron
ENCODING 317
SWIDTH 808 0
DWIDTH 13 0
BBX 12 10 0 0
BITMAP
F830
7030
7020
7040
7000
7000
7000
7100
7100
FF00
ENDCHAR
STARTCHAR lcaron
ENCODING 318
SWIDTH 546 0
DWIDTH 9 0
BBX 8 11 0 0
BITMAP
F0
73
73
72
74
70
70
70
70
70
F8
ENDCHAR
STARTCHAR Ldot
ENCODING 319
SWIDTH 836 0
DWIDTH 13 0
BBX 12 10 0 0
BITMAP
F800
7000
7000
7000
7000
7030
7030
7100
7100
FF00
ENDCHAR
STARTCHAR ldot
ENCODING 320
SWIDTH 574 0
DWIDTH 9 0
BBX 8 11 0 0
BITMAP
F0
70
70
70
70
70
73
73
70
70
F8
ENDCHAR
STARTCHAR Lslash
ENCODING 321
SWIDTH 591 0
DWIDTH 9 0
BBX 8 10 0 0
BITMAP
F8
70
74
78
70
70
F0
71
71
FF
ENDCHAR
STARTCHAR lslash
ENCODING 322
SWIDTH 321 0
DWIDTH 5 0
BBX 5 11 0 0
BITMAP
F0
70
70
70
78
70
F0
70
70
70
F8
ENDCHAR
STARTCHAR Nacute
ENCODING 323
SWIDTH 739 0
DWIDTH 11 0
BBX 10 13 0 0
BITMAP
0C00
1800
0000
F1C0
7880
7880
5C80
5C80
4E80
4E80
4780
4780
E380
ENDCHAR
STARTCHAR nacute
ENCODING 324
SWIDTH 638 0
DWIDTH 10 0
BBX 10 10 0 0
BITMAP
0C00
1800
0000
F700
7B80
7380
7380
7380
7380
FBC0
ENDCHAR
STARTCHAR Ncommaaccent
ENCODING 325
SWIDTH 739 0
DWIDTH 11 0
BBX 10 15 0 -5
BITMAP
F1C0
7880
7880
5C80
5C80
4E80
4E80
4780
4780
E380
0000
0C00
0C00
0800
1000
ENDCHAR
STARTCHAR ncommaaccent
ENCODING 326
SWIDTH 638 0
DWIDTH 10 0
BBX 10 12 0 -5
BITMAP
F700
7B80
7380
7380
7380
7380
FBC0
0000
0C00
0C00
0800
1000
ENDCHAR
STARTCHAR Ncaron
ENCODING 327
SWIDTH 739 0
DWIDTH 11 0
BBX 10 13 0 0
BITMAP
1A00
0C00
0000
F1C0
7880
7880
5C80
5C80
4E80
4E80
4780
4780
E380
ENDCHAR
STARTCHAR ncaron
ENCODING 328
SWIDTH 638 0
DWIDTH 10 0
BBX 10 10 0 0
BITMAP
1A00
0C00
0000
F700
7B80
7380
7380
7380
7380
FBC0
ENDCHAR
STARTCHAR napostrophe
ENCODING 329
SWIDTH 877 0
DWIDTH 14 0
BBX 14 10 0 0
BITMAP
6000
6000
4000
8F70
07B8
0738
0738
0738
0738
0FBC
ENDCHAR
STARTCHAR Eng
ENCODING 330
SWIDTH 739 0
DWIDTH 11 0
BBX 10 13 0 -3
BITMAP
F1C0
7880
7880
5C80
5C80
4E80
4E80
4780
4780
E380
0380
0380
0700
ENDCHAR
STARTCHAR eng
ENCODING 331
SWIDTH 638 0
DWIDTH 10 0
BBX 9 10 0 -3
BITMAP
F700
7B80
7380
7380
7380
7380
FB80
0380
0380
0700
ENDCHAR
STARTCHAR Omacron
ENCODING 332
SWIDTH 768 0
DWIDTH 11 0
BBX 10 12 0 0
BITMAP
1F00
0000
1E00
7380
6180
E1C0
E1C0
E1C0
E1C0
6180
7380
1E00
ENDCHAR
STARTCHAR omacron
ENCODING 333
SWIDTH 585 0
DWIDTH 9 0
BBX 8 9 0 0
BITMAP
3E
00
3C
66
E7
E7
E7
66
3C
ENDCHAR
STARTCHAR Obreve
ENCODING 334
SWIDTH 768 0
DWIDTH 11 0
BBX 10 13 0 0
BITMAP
1100
0E00
0000
1E00
7380
6180
E1C0
E1C0
E1C0
E1C0
6180
7380
1E00
ENDCHAR
STARTCHAR obreve
ENCODING 335
SWIDTH 585 0
DWIDTH 9 0
BBX 8 10 0 0
BITMAP
22
1C
00
3C
66
E7
E7
E7
66
3C
ENDCHAR
STARTCHAR Ohungarumlaut
ENCODING 336
SWIDTH 768 0
DWIDTH 11 0
BBX 10 13 0 0
BITMAP
1B00
3600
0000
1E00
7380
6180
E1C0
E1C0
E1C0
E1C0
6180
7380
1E00
ENDCHAR
STARTCHAR ohungarumlaut
ENCODING 337
SWIDTH 585 0
DWIDTH 9 0
BBX 8 10 0 0
BITMAP
36
6C
00
3C
66
E7
E7
E7
66
3C
ENDCHAR
STARTCHAR OE
ENCODING 338
SWIDTH 1049 0
DWIDTH 15 0
BBX 14 10 0 0
BITMAP
1FFC
73C4
61C4
E1C8
E1F8
E1C8
E1C0
61C4
73C4
1FFC
ENDCHAR
STARTCHAR oe
ENCODING 339
SWIDTH 866 0
DWIDTH 13 0
BBX 11 7 1 0
BITMAP
39C0
6760
E7E0
E700
E700
6720
39E0
ENDCHAR
STARTCHAR Racute
ENCODING 340
SWIDTH 684 0
DWIDTH 10 0
BBX 10 13 0 0
BITMAP
0600
0C00
0000
FF00
7380
7380
7300
7E00
7700
7700
7380
7380
FBC0
ENDCHAR
STARTCHAR racute
ENCODING 341
SWIDTH 440 0
DWIDTH 6 0
BBX 6 10 0 0
BITMAP
18
30
00
EC
7C
70
70
70
70
F8
ENDCHAR
STARTCHAR Rcommaaccent
ENCODING 342
SWIDTH 684 0
DWIDTH 10 0
BBX 10 15 0 -5
BITMAP
FF00
7380
7380
7300
7E00
7700
7700
7380
7380
FBC0
0000
0C00
0C00
0800
1000
ENDCHAR
STARTCHAR rcommaaccent
ENCODING 343
SWIDTH 440 0
DWIDTH 6 0
BBX 6 12 0 -5
BITMAP
EC
7C
70
70
70
70
F8
00
30
30
20
40
ENDCHAR
STARTCHAR Rcaron
ENCODING 344
SWIDTH 684 0
DWIDTH 10 0
BBX 10 13 0 0
BITMAP
1A00
0C00
0000
FF00
7380
7380
7300
7E00
7700
7700
7380
7380
FBC0
ENDCHAR
STARTCHAR rcaron
ENCODING 345
SWIDTH 440 0
DWIDTH 6 0
BBX 6 10 0 0
BITMAP
68
30
00
EC
7C
70
70
70
70
F8
ENDCHAR
STARTCHAR Sacute
ENCODING 346
SWIDTH 561 0
DWIDTH 8 0
BBX 7 13 0 0
BITMAP
18
30
00
7C
E6
E2
F0
7C
1E
0E
8E
CE
7C
ENDCHAR
STARTCHAR sacute
ENCODING 347
SWIDTH 446 0
DWIDTH 7 0
BBX 6 10 0 0
BITMAP
18
30
00
7C
E4
F0
78
3C
9C
F8
ENDCHAR
STARTCHAR Scircumflex
ENCODING 348
SWIDTH 561 0
DWIDTH 8 0
BBX 7 13 0 0
BITMAP
30
58
00
7C
E6
E2
F0
7C
1E
0E
8E
CE
7C
ENDCHAR
STARTCHAR scircumflex
ENCODING 349
SWIDTH 446 0
DWIDTH 7 0
BBX 6 10 0 0
BITMAP
30
58
00
7C
E4
F0
78
3C
9C
F8
ENDCHAR
STARTCHAR Scedilla
ENCODING 350
SWIDTH 561 0
DWIDTH 8 0
BBX 7 13 0 -3
BITMAP
7C
E6
E2
F0
7C
1E
0E
8E
CE
7C
10
08
38
ENDCHAR
STARTCHAR scedilla
ENCODING 351
SWIDTH 446 0
DWIDTH 7 0
BBX 6 10 0 -3
BITMAP
7C
E4
F0
78
3C
9C
F8
20
10
70
ENDCHAR
STARTCHAR Scaron
ENCODING 352
SWIDTH 561 0
DWIDTH 8 0
BBX 7 12 0 0
BITMAP
68
30
00
7C
E6
E0
F0
7C
1E
0E
CE
7C
ENDCHAR
STARTCHAR scaron
ENCODING 353
SWIDTH 446 0
DWIDTH 7 0
BBX 6 10 0 0
BITMAP
68
30
00
7C
E4
F0
78
3C
9C
F8
ENDCHAR
STARTCHAR Tcommaaccent
ENCODING 354
SWIDTH 624 0
DWIDTH 9 0
BBX 9 13 0 -3
BITMAP
FF80
9C80
9C80
1C00
1C00
1C00
1C00
1C00
1C00
3E00
0800
0400
1C00
ENDCHAR
STARTCHAR tcommaaccent
ENCODING 355
SWIDTH 370 0
DWIDTH 5 0
BBX 5 12 0 -3
BITMAP
30
70
F8
70
70
70
70
70
38
20
10
70
ENDCHAR
STARTCHAR Tcaron
ENCODING 356
SWIDTH 624 0
DWIDTH 9 0
BBX 9 13 0 0
BITMAP
1A00
0C00
0000
FF80
9C80
9C80
1C00
1C00
1C00
1C00
1C00
1C00
3E00
ENDCHAR
STARTCHAR tcaron
ENCODING 357
SWIDTH 604 0
DWIDTH 9 0
BBX 8 10 0 0
BITMAP
03
33
72
FC
70
70
70
70
70
38
ENDCHAR
STARTCHAR Tbar
ENCODING 358
SWIDTH 624 0
DWIDTH 9 0
BBX 9 10 0 0
BITMAP
FF80
9C80
9C80
1C00
3E00
1C00
1C00
1C00
1C00
3E00
ENDCHAR
STARTCHAR tbar
ENCODING 359
SWIDTH 370 0
DWIDTH 5 0
BBX 5 9 0 0
BITMAP
30
70
F8
70
70
F8
70
70
38
ENDCHAR
STARTCHAR Utilde
ENCODING 360
SWIDTH 786 0
DWIDTH 12 0
BBX 11 13 0 0
BITMAP
0D00
1600
0000
FBE0
71C0
71C0
71C0
71C0
71C0
71C0
71C0
3180
1F00
ENDCHAR
STARTCHAR utilde
ENCODING 361
SWIDTH 629 0
DWIDTH 10 0
BBX 10 10 0 0
BITMAP
0D00
1600
0000
F780
7380
7380
7380
7380
7780
3BC0
ENDCHAR
STARTCHAR Umacron
ENCODING 362
SWIDTH 786 0
DWIDTH 12 0
BBX 11 12 0 0
BITMAP
1F00
0000
FBE0
71C0
71C0
71C0
71C0
71C0
71C0
71C0
3180
1F00
ENDCHAR
STARTCHAR umacron
ENCODING 363
SWIDTH 629 0
DWIDTH 10 0
BBX 10 9 0 0
BITMAP
3E00
0000
F780
7380
7380
7380
7380
7780
3BC0
ENDCHAR
STARTCHAR Ubreve
ENCODING 364
SWIDTH 786 0
DWIDTH 12 0
BBX 11 13 0 0
BITMAP
1100
0E00
0000
FBE0
71C0
71C0
71C0
71C0
71C0
71C0
71C0
3180
1F00
ENDCHAR
STARTCHAR ubreve
ENCODING 365
SWIDTH 629 0
DWIDTH 10 0
BBX 10 10 0 0
BITMAP
2200
1C00
0000
F780
7380
7380
7380
7380
7780
3BC0
ENDCHAR
STARTCHAR Uring
ENCODING 366
SWIDTH 786 0
DWIDTH 12 0
BBX 11 14 0 0
BITMAP
0600
0900
0600
0000
FBE0
71C0
71C0
71C0
71C0
71C0
71C0
71C0
3180
1F00
ENDCHAR
STARTCHAR uring
ENCODING 367
SWIDTH 629 0
DWIDTH 10 0
BBX 10 11 0 0
BITMAP
0C00
1200
0C00
0000
F780
7380
7380
7380
7380
7780
3BC0
ENDCHAR
STARTCHAR Uhungarumlaut
ENCODING 368
SWIDTH 786 0
DWIDTH 12 0
BBX 11 13 0 0
BITMAP
0D80
1B00
0000
FBE0
71C0
71C0
71C0
71C0
71C0
71C0
71C0
3180
1F00
ENDCHAR
STARTCHAR uhungarumlaut
ENCODING 369
SWIDTH 629 0
DWIDTH 10 0
BBX 10 10 0 0
BITMAP
1B00
3600
0000
F780
7380
7380
7380
7380
7780
3BC0
ENDCHAR
STARTCHAR Uogonek
ENCODING 370
SWIDTH 786 0
DWIDTH 12 0
BBX 11 13 0 -3
BITMAP
FBE0
71C0
71C0
71C0
71C0
71C0
71C0
71C0
3180
1F00
0400
0800
0E00
ENDCHAR
STARTCHAR uogonek
ENCODING 371
SWIDTH 629 0
DWIDTH 10 0
BBX 10 10 0 -3
BITMAP
F780
7380
7380
7380
7380
7780
3BC0
0400
0800
0E00
ENDCHAR
STARTCHAR Wcircumflex
ENCODING 372
SWIDTH 933 0
DWIDTH 14 0
BBX 15 13 -1 0
BITMAP
0300
0580
0000
F9CE
71C4
71C4
3AE4
3AE8
3AE8
3AE8
1C70
1C70
1C70
ENDCHAR
STARTCHAR wcircumflex
ENCODING 373
SWIDTH 774 0
DWIDTH 11 0
BBX 12 10 -1 0
BITMAP
0600
0B00
0000
F370
7320
77A0
77A0
39C0
39C0
39C0
ENDCHAR
STARTCHAR Ycircumflex
ENCODING 374
SWIDTH 617 0
DWIDTH 9 0
BBX 9 13 0 0
BITMAP
1800
2C00
0000
FB80
7100
7100
3A00
3A00
1C00
1C00
1C00
1C00
3E00
ENDCHAR
STARTCHAR ycircumflex
ENCODING 375
SWIDTH 524 0
DWIDTH 8 0
BBX 8 13 0 -3
BITMAP
18
2C
00
F7
72
72
3C
3C
18
18
10
F0
60
ENDCHAR
STARTCHAR Ydieresis
ENCODING 376
SWIDTH 617 0
DWIDTH 9 0
BBX 9 12 0 0
BITMAP
3600
3600
0000
FB80
7100
7100
3A00
3A00
1C00
1C00
1C00
3E00
ENDCHAR
STARTCHAR Zacute
ENCODING 377
SWIDTH 614 0
DWIDTH 9 0
BBX 8 13 0 0
BITMAP
0C
18
00
FF
87
8E
1C
1C
38
38
71
E1
FF
ENDCHAR
STARTCHAR zacute
ENCODING 378
SWIDTH 483 0
DWIDTH 7 0
BBX 7 10 0 0
BITMAP
18
30
00
FE
DC
9C
38
72
76
FE
ENDCHAR
STARTCHAR Zdotaccent
ENCODING 379
SWIDTH 614 0
DWIDTH 9 0
BBX 8 13 0 0
BITMAP
18
18
00
FF
87
8E
1C
1C
38
38
71
E1
FF
ENDCHAR
STARTCHAR zdotaccent
ENCODING 380
SWIDTH 483 0
DWIDTH 7 0
BBX 7 10 0 0
BITMAP
30
30
00
FE
DC
9C
38
72
76
FE
ENDCHAR
STARTCHAR Zcaron
ENCODING 381
SWIDTH 614 0
DWIDTH 9 0
BBX 8 12 0 0
BITMAP
34
18
00
FF
8F
8E
1C
38
38
71
F1
FF
ENDCHAR
STARTCHAR zcaron
ENCODING 382
SWIDTH 483 0
DWIDTH 7 0
BBX 7 10 0 0
BITMAP
68
30
00
FE
DC
9C
38
72
76
FE
ENDCHAR
STARTCHAR uni0186
ENCODING 390
SWIDTH 689 0
DWIDTH 10 0
BBX 9 10 0 0
BITMAP
7C00
C700
8300
0380
0380
0380
0380
8300
C700
7C00
ENDCHAR
STARTCHAR uni0189
ENCODING 393
SWIDTH 783 0
DWIDTH 11 0
BBX 10 10 0 0
BITMAP
FE00
7380
7180
71C0
FDC0
71C0
71C0
7180
7380
FE00
ENDCHAR
STARTCHAR uni018E
ENCODING 398
SWIDTH 629 0
DWIDTH 9 0
BBX 8 10 0 0
BITMAP
FF
8E
8E
0E
4E
7E
4E
0E
8E
FF
ENDCHAR
STARTCHAR florin
ENCODING 402
SWIDTH 560 0
DWIDTH 8 0
BBX 8 12 0 -2
BITMAP
07
0D
1C
1C
7F
1C
38
38
38
38
B0
E0
ENDCHAR
STARTCHAR uni0197
ENCODING 407
SWIDTH 384 0
DWIDTH 6 0
BBX 5 10 0 0
BITMAP
F8
70
70
70
F8
70
70
70
70
F8
ENDCHAR
STARTCHAR uni019A
ENCODING 410
SWIDTH 309 0
DWIDTH 5 0
BBX 5 11 0 0
BITMAP
F0
70
70
70
70
F8
70
70
70
70
F8
ENDCHAR
STARTCHAR uni019D
ENCODING 413
SWIDTH 739 0
DWIDTH 11 0
BBX 10 13 0 -3
BITMAP
F1C0
7880
7880
5C80
5C80
4E80
4E80
7780
7380
7380
7000
7000
E000
ENDCHAR
STARTCHAR uni019F
ENCODING 415
SWIDTH 768 0
DWIDTH 11 0
BBX 10 10 0 0
BITMAP
1E00
7380
6180
E1C0
FFC0
E1C0
E1C0
6180
7380
1E00
ENDCHAR
STARTCHAR Ohorn
ENCODING 416
SWIDTH 768 0
DWIDTH 11 0
BBX 12 10 0 0
BITMAP
1E30
73B0
61A0
E1C0
E1C0
E1C0
E1C0
6180
7380
1E00
ENDCHAR
STARTCHAR ohorn
ENCODING 417
SWIDTH 585 0
DWIDTH 9 0
BBX 11 7 0 0
BITMAP
3C60
6660
E740
E780
E700
6600
3C00
ENDCHAR
STARTCHAR uni01A7
ENCODING 423
SWIDTH 561 0
DWIDTH 8 0
BBX 7 10 0 0
BITMAP
7C
CE
8E
1E
7C
F0
E0
E2
E6
7C
ENDCHAR
STARTCHAR uni01A8
ENCODING 424
SWIDTH 446 0
DWIDTH 7 0
BBX 6 7 0 0
BITMAP
F8
9C
3C
78
F0
E4
7C
ENDCHAR
STARTCHAR uni01AE
ENCODING 430
SWIDTH 624 0
DWIDTH 9 0
BBX 9 13 0 -3
BITMAP
FF80
9C80
9C80
1C00
1C00
1C00
1C00
1C00
1C00
1C00
1C00
1C00
0E00
ENDCHAR
STARTCHAR Uhorn
ENCODING 431
SWIDTH 786 0
DWIDTH 12 0
BBX 13 10 0 0
BITMAP
FBF8
71D8
71D0
71E0
71C0
71C0
71C0
71C0
3180
1F00
ENDCHAR
STARTCHAR uhorn
ENCODING 432
SWIDTH 629 0
DWIDTH 10 0
BBX 12 7 0 0
BITMAP
F7B0
73B0
73A0
73C0
7380
7780
3BC0
ENDCHAR
STARTCHAR uni01B5
ENCODING 437
SWIDTH 614 0
DWIDTH 9 0
BBX 8 10 0 0
BITMAP
FF
87
8E
1C
3E
38
38
71
E1
FF
ENDCHAR
STARTCHAR uni01B6
ENCODING 438
SWIDTH 483 0
DWIDTH 7 0
BBX 7 7 0 0
BITMAP
FE
DC
9C
7C
72
76
FE
ENDCHAR
STARTCHAR uni01BB
ENCODING 443
SWIDTH 560 0
DWIDTH 8 0
BBX 7 10 0 0
BITMAP
7C
EE
CE
0E
FE
38
60
E2
FE
FE
ENDCHAR
STARTCHAR uni01BC
ENCODING 444
SWIDTH 560 0
DWIDTH 8 0
BBX 7 10 0 0
BITMAP
FE
FC
C0
FC
9E
0E
0E
CE
EE
7C
ENDCHAR
STARTCHAR uni01C0
ENCODING 448
SWIDTH 284 0
DWIDTH 4 0
BBX 2 10 1 0
BITMAP
C0
C0
C0
C0
C0
C0
C0
C0
C0
C0
ENDCHAR
STARTCHAR uni01C2
ENCODING 450
SWIDTH 600 0
DWIDTH 9 0
BBX 7 10 1 -1
BITMAP
18
18
18
FE
18
18
FE
18
18
18
ENDCHAR
STARTCHAR uni01C3
ENCODING 451
SWIDTH 278 0
DWIDTH 4 0
BBX 2 10 1 0
BITMAP
C0
C0
C0
C0
C0
C0
C0
00
C0
C0
ENDCHAR
STARTCHAR uni01CD
ENCODING 461
SWIDTH 644 0
DWIDTH 9 0
BBX 10 13 -1 0
BITMAP
1A00
0C00
0000
0C00
0C00
1E00
1E00
2700
2700
3F00
4380
4380
E7C0
ENDCHAR
STARTCHAR uni01CE
ENCODING 462
SWIDTH 544 0
DWIDTH 8 0
BBX 7 10 1 0
BITMAP
68
30
00
78
DC
1C
7C
DC
DC
7E
ENDCHAR
STARTCHAR uni01CF
ENCODING 463
SWIDTH 384 0
DWIDTH 6 0
BBX 5 13 0 0
BITMAP
68
30
00
F8
70
70
70
70
70
70
70
70
F8
ENDCHAR
STARTCHAR uni01D0
ENCODING 464
SWIDTH 316 0
DWIDTH 5 0
BBX 5 10 0 0
BITMAP
D0
60
00
F0
70
70
70
70
70
F8
ENDCHAR
STARTCHAR uni01D1
ENCODING 465
SWIDTH 768 0
DWIDTH 11 0
BBX 10 13 0 0
BITMAP
1A00
0C00
0000
1E00
7380
6180
E1C0
E1C0
E1C0
E1C0
6180
7380
1E00
ENDCHAR
STARTCHAR uni01D2
ENCODING 466
SWIDTH 585 0
DWIDTH 9 0
BBX 8 10 0 0
BITMAP
34
18
00
3C
66
E7
E7
E7
66
3C
ENDCHAR
STARTCHAR uni01D3
ENCODING 467
SWIDTH 786 0
DWIDTH 12 0
BBX 11 13 0 0
BITMAP
0D00
0600
0000
FBE0
71C0
71C0
71C0
71C0
71C0
71C0
71C0
3180
1F00
ENDCHAR
STARTCHAR uni01D4
ENCODING 468
SWIDTH 629 0
DWIDTH 10 0
BBX 10 10 0 0
BITMAP
1A00
0C00
0000
F780
7380
7380
7380
7380
7780
3BC0
ENDCHAR
STARTCHAR uni01D5
ENCODING 469
SWIDTH 786 0
DWIDTH 12 0
BBX 11 14 0 0
BITMAP
1F00
0000
1B00
1B00
0000
FBE0
71C0
71C0
71C0
71C0
71C0
71C0
3180
1F00
ENDCHAR
STARTCHAR uni01D6
ENCODING 470
SWIDTH 629 0
DWIDTH 10 0
BBX 10 12 0 0
BITMAP
3E00
0000
3600
3600
0000
F780
7380
7380
7380
7380
7780
3BC0
ENDCHAR
STARTCHAR uni01D7
ENCODING 471
SWIDTH 786 0
DWIDTH 12 0
BBX 11 15 0 0
BITMAP
0600
0C00
0000
1B00
1B00
0000
FBE0
71C0
71C0
71C0
71C0
71C0
71C0
3180
1F00
ENDCHAR
STARTCHAR uni01D8
ENCODING 472
SWIDTH 629 0
DWIDTH 10 0
BBX 10 13 0 0
BITMAP
0600
0C00
0000
3600
3600
0000
F780
7380
7380
7380
7380
7780
3BC0
ENDCHAR
STARTCHAR uni01D9
ENCODING 473
SWIDTH 786 0
DWIDTH 12 0
BBX 11 15 0 0
BITMAP
0D00
0600
0000
1B00
1B00
0000
FBE0
71C0
71C0
71C0
71C0
71C0
71C0
3180
1F00
ENDCHAR
STARTCHAR uni01DA
ENCODING 474
SWIDTH 629 0
DWIDTH 10 0
BBX 10 13 0 0
BITMAP
1A00
0C00
0000
3600
3600
0000
F780
7380
7380
7380
7380
7780
3BC0
ENDCHAR
STARTCHAR uni01DB
ENCODING 475
SWIDTH 786 0
DWIDTH 12 0
BBX 11 15 0 0
BITMAP
0C00
0600
0000
1B00
1B00
0000
FBE0
71C0
71C0
71C0
71C0
71C0
71C0
3180
1F00
ENDCHAR
STARTCHAR uni01DC
ENCODING 476
SWIDTH 629 0
DWIDTH 10 0
BBX 10 13 0 0
BITMAP
1800
0C00
0000
3600
3600
0000
F780
7380
7380
7380
7380
7780
3BC0
ENDCHAR
STARTCHAR uni01DD
ENCODING 477
SWIDTH 519 0
DWIDTH 7 0
BBX 6 7 0 0
BITMAP
F0
98
1C
1C
FC
D8
70
ENDCHAR
STARTCHAR uni01DE
ENCODING 478
SWIDTH 644 0
DWIDTH 9 0
BBX 10 14 -1 0
BITMAP
3E00
0000
3600
3600
0000
0C00
0C00
1E00
1E00
2700
3F00
4380
4380
E7C0
ENDCHAR
STARTCHAR uni01DF
ENCODING 479
SWIDTH 544 0
DWIDTH 8 0
BBX 7 12 0 0
BITMAP
7C
00
6C
6C
00
78
DC
1C
7C
DC
DC
7E
ENDCHAR
STARTCHAR uni01E0
ENCODING 480
SWIDTH 644 0
DWIDTH 9 0
BBX 10 15 -1 0
BITMAP
1F00
0000
0C00
0C00
0000
0C00
0C00
1E00
1E00
2700
2700
3F00
4380
4380
E7C0
ENDCHAR
STARTCHAR uni01E1
ENCODING 481
SWIDTH 544 0
DWIDTH 8 0
BBX 7 12 1 0
BITMAP
7C
00
30
30
00
78
DC
1C
7C
DC
DC
7E
ENDCHAR
STARTCHAR uni01E2
ENCODING 482
SWIDTH 879 0
DWIDTH 13 0
BBX 13 12 -1 0
BITMAP
07C0
0000
0FF8
0788
0B88
0B90
13F0
1F90
2380
2388
4388
E7F8
ENDCHAR
STARTCHAR uni01E3
ENCODING 483
SWIDTH 806 0
DWIDTH 12 0
BBX 9 9 1 0
BITMAP
3E00
0000
7B00
DD80
1F80
7C00
DC00
DC80
7B80
ENDCHAR
STARTCHAR uni01E4
ENCODING 484
SWIDTH 726 0
DWIDTH 10 0
BBX 11 10 0 0
BITMAP
1F00
7180
6080
E000
E000
E000
E7C0
63E0
7380
1F00
ENDCHAR
STARTCHAR uni01E5
ENCODING 485
SWIDTH 533 0
DWIDTH 8 0
BBX 8 10 0 -3
BITMAP
7F
EE
EE
EC
78
30
7E
FF
E7
7E
ENDCHAR
STARTCHAR Gcaron
ENCODING 486
SWIDTH 726 0
DWIDTH 10 0
BBX 10 13 0 0
BITMAP
1A00
0C00
0000
1F00
7180
6080
E000
E000
E000
E7C0
6380
7380
1F00
ENDCHAR
STARTCHAR gcaron
ENCODING 487
SWIDTH 533 0
DWIDTH 8 0
BBX 8 13 0 -3
BITMAP
34
18
00
7F
EE
EE
EC
78
30
7E
CF
E7
7E
ENDCHAR
STARTCHAR uni01E8
ENCODING 488
SWIDTH 707 0
DWIDTH 10 0
BBX 10 13 0 0
BITMAP
1A00
0C00
0000
FBC0
7180
7300
7600
7C00
7E00
7700
7300
7380
F9C0
ENDCHAR
STARTCHAR uni01E9
ENCODING 489
SWIDTH 582 0
DWIDTH 9 0
BBX 9 14 0 0
BITMAP
6800
3000
0000
F000
7000
7000
7000
7700
7600
7C00
7C00
7E00
7700
F380
ENDCHAR
STARTCHAR uni01EA
ENCODING 490
SWIDTH 768 0
DWIDTH 11 0
BBX 10 13 0 -3
BITMAP
1E00
7380
6180
E1C0
E1C0
E1C0
E1C0
6180
7380
1E00
0400
0800
0E00
ENDCHAR
STARTCHAR uni01EB
ENCODING 491
SWIDTH 585 0
DWIDTH 9 0
BBX 8 10 0 -3
BITMAP
3C
66
E7
E7
E7
66
3C
08
10
1C
ENDCHAR
STARTCHAR uni01EC
ENCODING 492
SWIDTH 768 0
DWIDTH 11 0
BBX 10 15 0 -3
BITMAP
1F00
0000
1E00
7380
6180
E1C0
E1C0
E1C0
E1C0
6180
7380
1E00
0400
0800
0E00
ENDCHAR
STARTCHAR uni01ED
ENCODING 493
SWIDTH 585 0
DWIDTH 9 0
BBX 8 12 0 -3
BITMAP
3E
00
3C
66
E7
E7
E7
66
3C
08
10
1C
ENDCHAR
STARTCHAR uni01F0
ENCODING 496
SWIDTH 316 0
DWIDTH 5 0
BBX 4 13 0 -3
BITMAP
D0
60
00
F0
70
70
70
70
70
70
70
70
E0
ENDCHAR
STARTCHAR uni01F4
ENCODING 500
SWIDTH 726 0
DWIDTH 10 0
BBX 10 13 0 0
BITMAP
0600
0C00
0000
1F00
7180
6080
E000
E000
E000
E7C0
6380
7380
1F00
ENDCHAR
STARTCHAR uni01F5
ENCODING 501
SWIDTH 533 0
DWIDTH 8 0
BBX 8 13 0 -3
BITMAP
0C
18
00
7F
EE
EE
EC
78
30
7E
CF
E7
7E
ENDCHAR
STARTCHAR uni01F8
ENCODING 504
SWIDTH 739 0
DWIDTH 11 0
BBX 10 13 0 0
BITMAP
1800
0C00
0000
F1C0
7880
7880
5C80
5C80
4E80
4E80
4780
4780
E380
ENDCHAR
STARTCHAR uni01F9
ENCODING 505
SWIDTH 638 0
DWIDTH 10 0
BBX 10 10 0 0
BITMAP
1800
0C00
0000
F700
7B80
7380
7380
7380
7380
FBC0
ENDCHAR
STARTCHAR Aringacute
ENCODING 506
SWIDTH 644 0
DWIDTH 9 0
BBX 10 15 -1 0
BITMAP
0600
0C00
0000
0C00
1200
0C00
0C00
0C00
1E00
1E00
2700
3F00
4380
4380
E7C0
ENDCHAR
STARTCHAR aringacute
ENCODING 507
SWIDTH 544 0
DWIDTH 8 0
BBX 7 14 0 0
BITMAP
18
30
00
30
48
30
00
78
DC
1C
7C
DC
DC
7E
ENDCHAR
STARTCHAR AEacute
ENCODING 508
SWIDTH 879 0
DWIDTH 13 0
BBX 13 13 -1 0
BITMAP
0180
0300
0000
0FF8
0788
0B88
0B90
13F0
1F90
2380
2388
4388
E7F8
ENDCHAR
STARTCHAR aeacute
ENCODING 509
SWIDTH 806 0
DWIDTH 12 0
BBX 9 10 1 0
BITMAP
0C00
1800
0000
7B00
DD80
1F80
7C00
DC00
DC80
7B80
ENDCHAR
STARTCHAR Oslashacute
ENCODING 510
SWIDTH 768 0
DWIDTH 11 0
BBX 10 13 0 0
BITMAP
0600
0C00
0000
1E80
7380
6380
E5C0
E5C0
E9C0
E9C0
7180
7380
5E00
ENDCHAR
STARTCHAR oslashacute
ENCODING 511
SWIDTH 585 0
DWIDTH 9 0
BBX 8 10 0 0
BITMAP
0C
18
00
3D
66
EF
F7
E7
66
BC
ENDCHAR
STARTCHAR uni0200
ENCODING 512
SWIDTH 644 0
DWIDTH 9 0
BBX 10 13 -1 0
BITMAP
3600
1B00
0000
0C00
0C00
1E00
1E00
2700
2700
3F00
4380
4380
E7C0
ENDCHAR
STARTCHAR uni0201
ENCODING 513
SWIDTH 544 0
DWIDTH 8 0
BBX 7 10 1 0
BITMAP
D8
6C
00
78
DC
1C
7C
DC
DC
7E
ENDCHAR
STARTCHAR uni0202
ENCODING 514
SWIDTH 644 0
DWIDTH 9 0
BBX 10 13 -1 0
BITMAP
0E00
1100
0000
0C00
0C00
1E00
1E00
2700
2700
3F00
4380
4380
E7C0
ENDCHAR
STARTCHAR uni0203
ENCODING 515
SWIDTH 544 0
DWIDTH 8 0
BBX 7 10 1 0
BITMAP
38
44
00
78
DC
1C
7C
DC
DC
7E
ENDCHAR
STARTCHAR uni0204
ENCODING 516
SWIDTH 629 0
DWIDTH 9 0
BBX 8 13 0 0
BITMAP
D8
6C
00
FF
71
70
72
7E
72
70
71
71
FF
ENDCHAR
STARTCHAR uni0205
ENCODING 517
SWIDTH 519 0
DWIDTH 7 0
BBX 6 10 0 0
BITMAP
D8
6C
00
38
6C
FC
E0
E0
64
3C
ENDCHAR
STARTCHAR uni0206
ENCODING 518
SWIDTH 629 0
DWIDTH 9 0
BBX 8 13 0 0
BITMAP
38
44
00
FF
71
70
72
7E
72
70
71
71
FF
ENDCHAR
STARTCHAR uni0207
ENCODING 519
SWIDTH 519 0
DWIDTH 7 0
BBX 6 10 0 0
BITMAP
38
44
00
38
6C
FC
E0
E0
64
3C
ENDCHAR
STARTCHAR uni0208
ENCODING 520
SWIDTH 384 0
DWIDTH 6 0
BBX 6 13 -1 0
BITMAP
D8
6C
00
7C
38
38
38
38
38
38
38
38
7C
ENDCHAR
STARTCHAR uni0209
ENCODING 521
SWIDTH 316 0
DWIDTH 5 0
BBX 6 10 -1 0
BITMAP
D8
6C
00
78
38
38
38
38
38
7C
ENDCHAR
STARTCHAR uni020A
ENCODING 522
SWIDTH 384 0
DWIDTH 6 0
BBX 5 13 0 0
BITMAP
70
88
00
F8
70
70
70
70
70
70
70
70
F8
ENDCHAR
STARTCHAR uni020B
ENCODING 523
SWIDTH 316 0
DWIDTH 5 0
BBX 5 10 0 0
BITMAP
70
88
00
F0
70
70
70
70
70
F8
ENDCHAR
STARTCHAR uni020C
ENCODING 524
SWIDTH 768 0
DWIDTH 11 0
BBX 10 13 0 0
BITMAP
3600
1B00
0000
1E00
7380
6180
E1C0
E1C0
E1C0
E1C0
6180
7380
1E00
ENDCHAR
STARTCHAR uni020D
ENCODING 525
SWIDTH 585 0
DWIDTH 9 0
BBX 8 10 0 0
BITMAP
6C
36
00
3C
66
E7
E7
E7
66
3C
ENDCHAR
STARTCHAR uni020E
ENCODING 526
SWIDTH 768 0
DWIDTH 11 0
BBX 10 13 0 0
BITMAP
0E00
1100
0000
1E00
7380
6180
E1C0
E1C0
E1C0
E1C0
6180
7380
1E00
ENDCHAR
STARTCHAR uni020F
ENCODING 527
SWIDTH 585 0
DWIDTH 9 0
BBX 8 10 0 0
BITMAP
1C
22
00
3C
66
E7
E7
E7
66
3C
ENDCHAR
STARTCHAR uni0210
ENCODING 528
SWIDTH 684 0
DWIDTH 10 0
BBX 10 13 0 0
BITMAP
6C00
3600
0000
FF00
7380
7380
7300
7E00
7700
7700
7380
7380
FBC0
ENDCHAR
STARTCHAR uni0211
ENCODING 529
SWIDTH 440 0
DWIDTH 6 0
BBX 6 10 0 0
BITMAP
D8
6C
00
EC
7C
70
70
70
70
F8
ENDCHAR
STARTCHAR uni0212
ENCODING 530
SWIDTH 684 0
DWIDTH 10 0
BBX 10 13 0 0
BITMAP
1C00
2200
0000
FF00
7380
7380
7300
7E00
7700
7700
7380
7380
FBC0
ENDCHAR
STARTCHAR uni0213
ENCODING 531
SWIDTH 440 0
DWIDTH 6 0
BBX 6 10 0 0
BITMAP
38
44
00
EC
7C
70
70
70
70
F8
ENDCHAR
STARTCHAR uni0214
ENCODING 532
SWIDTH 786 0
DWIDTH 12 0
BBX 11 13 0 0
BITMAP
3600
1B00
0000
FBE0
71C0
71C0
71C0
71C0
71C0
71C0
71C0
3180
1F00
ENDCHAR
STARTCHAR uni0215
ENCODING 533
SWIDTH 629 0
DWIDTH 10 0
BBX 10 10 0 0
BITMAP
6C00
3600
0000
F780
7380
7380
7380
7380
7780
3BC0
ENDCHAR
STARTCHAR uni0216
ENCODING 534
SWIDTH 786 0
DWIDTH 12 0
BBX 11 13 0 0
BITMAP
0E00
1100
0000
FBE0
71C0
71C0
71C0
71C0
71C0
71C0
71C0
3180
1F00
ENDCHAR
STARTCHAR uni0217
ENCODING 535
SWIDTH 629 0
DWIDTH 10 0
BBX 10 10 0 0
BITMAP
1C00
2200
0000
F780
7380
7380
7380
7380
7780
3BC0
ENDCHAR
STARTCHAR Scommaaccent
ENCODING 536
SWIDTH 561 0
DWIDTH 8 0
BBX 7 15 0 -5
BITMAP
7C
E6
E2
F0
7C
1E
0E
8E
CE
7C
00
18
18
10
20
ENDCHAR
STARTCHAR scommaaccent
ENCODING 537
SWIDTH 446 0
DWIDTH 7 0
BBX 6 12 0 -5
BITMAP
7C
E4
F0
78
3C
9C
F8
00
30
30
20
40
ENDCHAR
STARTCHAR Tcommaaccent
ENCODING 538
SWIDTH 624 0
DWIDTH 9 0
BBX 9 15 0 -5
BITMAP
FF80
9C80
9C80
1C00
1C00
1C00
1C00
1C00
1C00
3E00
0000
0C00
0C00
0800
1000
ENDCHAR
STARTCHAR tcommaaccent
ENCODING 539
SWIDTH 370 0
DWIDTH 5 0
BBX 5 14 0 -5
BITMAP
30
70
F8
70
70
70
70
70
38
00
30
30
20
40
ENDCHAR
STARTCHAR uni021E
ENCODING 542
SWIDTH 807 0
DWIDTH 12 0
BBX 11 13 0 0
BITMAP
0D00
0600
0000
FBE0
71C0
71C0
71C0
7FC0
71C0
71C0
71C0
71C0
FBE0
ENDCHAR
STARTCHAR uni021F
ENCODING 543
SWIDTH 631 0
DWIDTH 10 0
BBX 10 14 0 0
BITMAP
6800
3000
0000
F000
7000
7000
7000
7700
7B80
7380
7380
7380
7380
FBC0
ENDCHAR
STARTCHAR uni0226
ENCODING 550
SWIDTH 644 0
DWIDTH 9 0
BBX 10 13 -1 0
BITMAP
0C00
0C00
0000
0C00
0C00
1E00
1E00
2700
2700
3F00
4380
4380
E7C0
ENDCHAR
STARTCHAR uni0227
ENCODING 551
SWIDTH 544 0
DWIDTH 8 0
BBX 7 10 1 0
BITMAP
30
30
00
78
DC
1C
7C
DC
DC
7E
ENDCHAR
STARTCHAR uni0228
ENCODING 552
SWIDTH 629 0
DWIDTH 9 0
BBX 8 13 0 -3
BITMAP
FF
71
70
72
7E
72
70
71
71
FF
10
08
38
ENDCHAR
STARTCHAR uni0229
ENCODING 553
SWIDTH 519 0
DWIDTH 7 0
BBX 6 10 0 -3
BITMAP
38
6C
FC
E0
E0
64
3C
10
08
38
ENDCHAR
STARTCHAR uni022A
ENCODING 554
SWIDTH 768 0
DWIDTH 11 0
BBX 10 14 0 0
BITMAP
3E00
0000
3600
3600
0000
1E00
7380
6180
E1C0
E1C0
E1C0
6180
7380
1E00
ENDCHAR
STARTCHAR uni022B
ENCODING 555
SWIDTH 585 0
DWIDTH 9 0
BBX 8 12 0 0
BITMAP
7C
00
6C
6C
00
3C
66
E7
E7
E7
66
3C
ENDCHAR
STARTCHAR uni022C
ENCODING 556
SWIDTH 768 0
DWIDTH 11 0
BBX 10 14 0 0
BITMAP
3E00
0000
1A00
2C00
0000
1E00
7380
6180
E1C0
E1C0
E1C0
6180
7380
1E00
ENDCHAR
STARTCHAR uni022D
ENCODING 557
SWIDTH 585 0
DWIDTH 9 0
BBX 8 12 0 0
BITMAP
7C
00
34
58
00
3C
66
E7
E7
E7
66
3C
ENDCHAR
STARTCHAR uni022E
ENCODING 558
SWIDTH 768 0
DWIDTH 11 0
BBX 10 13 0 0
BITMAP
0C00
0C00
0000
1E00
7380
6180
E1C0
E1C0
E1C0
E1C0
6180
7380
1E00
ENDCHAR
STARTCHAR uni022F
ENCODING 559
SWIDTH 585 0
DWIDTH 9 0
BBX 8 10 0 0
BITMAP
18
18
00
3C
66
E7
E7
E7
66
3C
ENDCHAR
STARTCHAR uni0230
ENCODING 560
SWIDTH 768 0
DWIDTH 11 0
BBX 10 15 0 0
BITMAP
1F00
0000
0C00
0C00
0000
1E00
7380
6180
E1C0
E1C0
E1C0
E1C0
6180
7380
1E00
ENDCHAR
STARTCHAR uni0231
ENCODING 561
SWIDTH 585 0
DWIDTH 9 0
BBX 8 12 0 0
BITMAP
3E
00
18
18
00
3C
66
E7
E7
E7
66
3C
ENDCHAR
STARTCHAR uni0232
ENCODING 562
SWIDTH 617 0
DWIDTH 9 0
BBX 9 12 0 0
BITMAP
3E00
0000
FB80
7100
7100
3A00
3A00
1C00
1C00
1C00
1C00
3E00
ENDCHAR
STARTCHAR uni0233
ENCODING 563
SWIDTH 524 0
DWIDTH 8 0
BBX 8 12 0 -3
BITMAP
7C
00
F7
72
72
3C
3C
18
18
10
F0
60
ENDCHAR
STARTCHAR uni0250
ENCODING 592
SWIDTH 544 0
DWIDTH 8 0
BBX 7 7 1 0
BITMAP
FC
76
76
7C
70
76
3C
ENDCHAR
STARTCHAR uni0254
ENCODING 596
SWIDTH 494 0
DWIDTH 7 0
BBX 6 7 0 0
BITMAP
F0
D8
9C
1C
1C
98
F0
ENDCHAR
STARTCHAR uni0258
ENCODING 600
SWIDTH 519 0
DWIDTH 7 0
BBX 6 7 0 0
BITMAP
70
D8
FC
1C
1C
98
F0
ENDCHAR
STARTCHAR uni0259
ENCODING 601
SWIDTH 519 0
DWIDTH 7 0
BBX 6 7 0 0
BITMAP
F0
98
1C
1C
FC
D8
70
ENDCHAR
STARTCHAR uni025F
ENCODING 607
SWIDTH 342 0
DWIDTH 5 0
BBX 6 11 0 -4
BITMAP
7C
38
38
38
38
38
7C
38
D8
D8
70
ENDCHAR
STARTCHAR uni0265
ENCODING 613
SWIDTH 631 0
DWIDTH 10 0
BBX 10 11 0 -4
BITMAP
F7C0
7380
7380
7380
7380
7780
3B80
0380
0380
0380
03C0
ENDCHAR
STARTCHAR uni0275
ENCODING 629
SWIDTH 585 0
DWIDTH 9 0
BBX 8 7 0 0
BITMAP
3C
66
E7
FF
E7
66
3C
ENDCHAR
STARTCHAR uni0279
ENCODING 633
SWIDTH 440 0
DWIDTH 6 0
BBX 6 7 0 0
BITMAP
7C
38
38
38
38
F8
DC
ENDCHAR
STARTCHAR uni0287
ENCODING 647
SWIDTH 370 0
DWIDTH 5 0
BBX 5 9 0 0
BITMAP
E0
70
70
70
70
70
F8
70
60
ENDCHAR
STARTCHAR uni0288
ENCODING 648
SWIDTH 370 0
DWIDTH 5 0
BBX 5 12 0 -3
BITMAP
30
70
F8
70
70
70
70
70
70
70
70
38
ENDCHAR
STARTCHAR uni0289
ENCODING 649
SWIDTH 629 0
DWIDTH 10 0
BBX 10 7 0 0
BITMAP
F780
7380
7380
FFC0
7380
7780
3BC0
ENDCHAR
STARTCHAR uni028C
ENCODING 652
SWIDTH 520 0
DWIDTH 7 0
BBX 8 7 -1 0
BITMAP
18
18
3C
3C
4E
4E
EF
ENDCHAR
STARTCHAR uni028D
ENCODING 653
SWIDTH 774 0
DWIDTH 11 0
BBX 12 7 -1 0
BITMAP
39C0
39C0
39C0
5EE0
5EE0
4CE0
ECF0
ENDCHAR
STARTCHAR uni028E
ENCODING 654
SWIDTH 524 0
DWIDTH 8 0
BBX 8 10 0 0
BITMAP
06
0F
08
18
18
3C
3C
4E
4E
EF
ENDCHAR
STARTCHAR uni029E
ENCODING 670
SWIDTH 582 0
DWIDTH 9 0
BBX 9 11 0 -4
BITMAP
E780
7700
3F00
1F00
1F00
3700
7700
0700
0700
0700
0780
ENDCHAR
STARTCHAR uni02BB
ENCODING 699
SWIDTH 252 0
DWIDTH 4 0
BBX 3 4 0 6
BITMAP
20
40
C0
C0
ENDCHAR
STARTCHAR afii57929
ENCODING 700
SWIDTH 252 0
DWIDTH 4 0
BBX 3 4 0 6
BITMAP
60
60
40
80
ENDCHAR
STARTCHAR afii64937
ENCODING 701
SWIDTH 252 0
DWIDTH 4 0
BBX 3 4 0 6
BITMAP
C0
C0
40
20
ENDCHAR
STARTCHAR circumflex
ENCODING 710
SWIDTH 430 0
DWIDTH 6 0
BBX 4 2 1 8
BITMAP
60
B0
ENDCHAR
STARTCHAR caron
ENCODING 711
SWIDTH 430 0
DWIDTH 6 0
BBX 4 2 1 8
BITMAP
D0
60
ENDCHAR
STARTCHAR uni02C8
ENCODING 712
SWIDTH 252 0
DWIDTH 4 0
BBX 2 5 1 5
BITMAP
C0
C0
C0
80
80
ENDCHAR
STARTCHAR macron
ENCODING 713
SWIDTH 430 0
DWIDTH 6 0
BBX 5 1 0 8
BITMAP
F8
ENDCHAR
STARTCHAR uni02CA
ENCODING 714
SWIDTH 430 0
DWIDTH 6 0
BBX 3 2 1 8
BITMAP
60
C0
ENDCHAR
STARTCHAR uni02CB
ENCODING 715
SWIDTH 430 0
DWIDTH 6 0
BBX 3 2 1 8
BITMAP
C0
60
ENDCHAR
STARTCHAR uni02CD
ENCODING 717
SWIDTH 430 0
DWIDTH 6 0
BBX 5 1 0 -2
BITMAP
F8
ENDCHAR
STARTCHAR uni02CE
ENCODING 718
SWIDTH 430 0
DWIDTH 6 0
BBX 3 2 1 -3
BITMAP
C0
60
ENDCHAR
STARTCHAR uni02CF
ENCODING 719
SWIDTH 430 0
DWIDTH 6 0
BBX 3 2 1 -3
BITMAP
60
C0
ENDCHAR
STARTCHAR breve
ENCODING 728
SWIDTH 430 0
DWIDTH 6 0
BBX 5 2 0 8
BITMAP
88
70
ENDCHAR
STARTCHAR dotaccent
ENCODING 729
SWIDTH 430 0
DWIDTH 6 0
BBX 2 2 2 8
BITMAP
C0
C0
ENDCHAR
STARTCHAR ring
ENCODING 730
SWIDTH 430 0
DWIDTH 6 0
BBX 4 3 0 8
BITMAP
60
90
60
ENDCHAR
STARTCHAR ogonek
ENCODING 731
SWIDTH 430 0
DWIDTH 6 0
BBX 3 3 1 -3
BITMAP
40
80
E0
ENDCHAR
STARTCHAR tilde
ENCODING 732
SWIDTH 430 0
DWIDTH 6 0
BBX 5 2 0 8
BITMAP
68
B0
ENDCHAR
STARTCHAR hungarumlaut
ENCODING 733
SWIDTH 430 0
DWIDTH 6 0
BBX 6 2 0 8
BITMAP
6C
D8
ENDCHAR
STARTCHAR uni02EE
ENCODING 750
SWIDTH 473 0
DWIDTH 7 0
BBX 6 4 0 6
BITMAP
6C
6C
48
90
ENDCHAR
STARTCHAR uni037E
ENCODING 894
SWIDTH 280 0
DWIDTH 4 0
BBX 3 9 0 -2
BITMAP
60
60
00
00
00
60
60
40
80
ENDCHAR
STARTCHAR tonos
ENCODING 900
SWIDTH 430 0
DWIDTH 6 0
BBX 3 2 1 8
BITMAP
60
C0
ENDCHAR
STARTCHAR dieresistonos
ENCODING 901
SWIDTH 430 0
DWIDTH 6 0
BBX 5 5 1 8
BITMAP
30
60
00
D8
D8
ENDCHAR
STARTCHAR anoteleia
ENCODING 903
SWIDTH 280 0
DWIDTH 4 0
BBX 2 2 1 3
BITMAP
C0
C0
ENDCHAR
STARTCHAR mu
ENCODING 956
SWIDTH 629 0
DWIDTH 10 0
BBX 10 10 0 -3
BITMAP
F780
7380
7380
7380
7380
7780
7BC0
6000
7000
7000
ENDCHAR
STARTCHAR uni1E00
ENCODING 7680
SWIDTH 644 0
DWIDTH 9 0
BBX 10 14 -1 -4
BITMAP
0C00
0C00
1E00
1E00
2700
2700
3F00
4380
4380
E7C0
0000
0C00
1200
0C00
ENDCHAR
STARTCHAR uni1E01
ENCODING 7681
SWIDTH 544 0
DWIDTH 8 0
BBX 7 11 1 -4
BITMAP
78
DC
1C
7C
DC
DC
7E
00
18
24
18
ENDCHAR
STARTCHAR uni1E02
ENCODING 7682
SWIDTH 683 0
DWIDTH 10 0
BBX 9 13 0 0
BITMAP
0C00
0C00
0000
FF00
7380
7380
7380
7F00
7380
7380
7380
7380
FF00
ENDCHAR
STARTCHAR uni1E03
ENCODING 7683
SWIDTH 605 0
DWIDTH 9 0
BBX 9 14 0 0
BITMAP
3000
3000
0000
F000
7000
7000
7000
7600
7B00
7380
7380
7380
7300
7E00
ENDCHAR
STARTCHAR uni1E04
ENCODING 7684
SWIDTH 683 0
DWIDTH 10 0
BBX 9 13 0 -3
BITMAP
FF00
7380
7380
7380
7F00
7380
7380
7380
7380
FF00
0000
0C00
0C00
ENDCHAR
STARTCHAR uni1E05
ENCODING 7685
SWIDTH 605 0
DWIDTH 9 0
BBX 9 14 0 -3
BITMAP
F000
7000
7000
7000
7600
7B00
7380
7380
7380
7300
7E00
0000
1800
1800
ENDCHAR
STARTCHAR uni1E06
ENCODING 7686
SWIDTH 683 0
DWIDTH 10 0
BBX 9 12 0 -2
BITMAP
FF00
7380
7380
7380
7F00
7380
7380
7380
7380
FF00
0000
3E00
ENDCHAR
STARTCHAR uni1E07
ENCODING 7687
SWIDTH 605 0
DWIDTH 9 0
BBX 9 13 0 -2
BITMAP
F000
7000
7000
7000
7600
7B00
7380
7380
7380
7300
7E00
0000
3E00
ENDCHAR
STARTCHAR uni1E08
ENCODING 7688
SWIDTH 689 0
DWIDTH 10 0
BBX 9 16 0 -3
BITMAP
0C00
1800
0000
1F00
7180
6080
E000
E000
E000
E000
6080
7180
1F00
0800
0400
1C00
ENDCHAR
STARTCHAR uni1E09
ENCODING 7689
SWIDTH 494 0
DWIDTH 7 0
BBX 6 13 0 -3
BITMAP
18
30
00
3C
6C
E4
E0
E0
64
3C
20
10
70
ENDCHAR
STARTCHAR uni1E0A
ENCODING 7690
SWIDTH 777 0
DWIDTH 11 0
BBX 10 13 0 0
BITMAP
0C00
0C00
0000
FE00
7380
7180
71C0
71C0
71C0
71C0
7180
7380
FE00
ENDCHAR
STARTCHAR uni1E0B
ENCODING 7691
SWIDTH 605 0
DWIDTH 9 0
BBX 9 14 0 0
BITMAP
0600
0600
0000
0F00
0700
0700
0700
3700
6F00
E700
E700
E700
6700
3F80
ENDCHAR
STARTCHAR uni1E0C
ENCODING 7692
SWIDTH 777 0
DWIDTH 11 0
BBX 10 13 0 -3
BITMAP
FE00
7380
7180
71C0
71C0
71C0
71C0
7180
7380
FE00
0000
0C00
0C00
ENDCHAR
STARTCHAR uni1E0D
ENCODING 7693
SWIDTH 605 0
DWIDTH 9 0
BBX 9 14 0 -3
BITMAP
0F00
0700
0700
0700
3700
6F00
E700
E700
E700
6700
3F80
0000
0C00
0C00
ENDCHAR
STARTCHAR uni1E0E
ENCODING 7694
SWIDTH 777 0
DWIDTH 11 0
BBX 10 12 0 -2
BITMAP
FE00
7380
7180
71C0
71C0
71C0
71C0
7180
7380
FE00
0000
3E00
ENDCHAR
STARTCHAR uni1E0F
ENCODING 7695
SWIDTH 605 0
DWIDTH 9 0
BBX 9 13 0 -2
BITMAP
0F00
0700
0700
0700
3700
6F00
E700
E700
E700
6700
3F80
0000
3E00
ENDCHAR
STARTCHAR uni1E10
ENCODING 7696
SWIDTH 777 0
DWIDTH 11 0
BBX 10 13 0 -3
BITMAP
FE00
7380
7180
71C0
71C0
71C0
71C0
7180
7380
FE00
0800
0400
1C00
ENDCHAR
STARTCHAR uni1E11
ENCODING 7697
SWIDTH 605 0
DWIDTH 9 0
BBX 9 14 0 -3
BITMAP
0F00
0700
0700
0700
3700
6F00
E700
E700
E700
6700
3F80
0800
0400
1C00
ENDCHAR
STARTCHAR uni1E12
ENCODING 7698
SWIDTH 777 0
DWIDTH 11 0
BBX 10 13 0 -3
BITMAP
FE00
7380
7180
71C0
71C0
71C0
71C0
7180
7380
FE00
0000
0C00
1600
ENDCHAR
STARTCHAR uni1E13
ENCODING 7699
SWIDTH 605 0
DWIDTH 9 0
BBX 9 14 0 -3
BITMAP
0F00
0700
0700
0700
3700
6F00
E700
E700
E700
6700
3F80
0000
0C00
1600
ENDCHAR
STARTCHAR uni1E14
ENCODING 7700
SWIDTH 629 0
DWIDTH 9 0
BBX 8 15 0 0
BITMAP
30
18
00
7C
00
FF
71
70
72
7E
72
70
71
71
FF
ENDCHAR
STARTCHAR uni1E15
ENCODING 7701
SWIDTH 519 0
DWIDTH 7 0
BBX 6 12 0 0
BITMAP
30
18
00
7C
00
38
6C
FC
E0
E0
64
3C
ENDCHAR
STARTCHAR uni1E16
ENCODING 7702
SWIDTH 629 0
DWIDTH 9 0
BBX 8 15 0 0
BITMAP
0C
18
00
7C
00
FF
71
70
72
7E
72
70
71
71
FF
ENDCHAR
STARTCHAR uni1E17
ENCODING 7703
SWIDTH 519 0
DWIDTH 7 0
BBX 6 12 0 0
BITMAP
18
30
00
7C
00
38
6C
FC
E0
E0
64
3C
ENDCHAR
STARTCHAR uni1E18
ENCODING 7704
SWIDTH 629 0
DWIDTH 9 0
BBX 8 13 0 -3
BITMAP
FF
71
70
72
7E
72
70
71
71
FF
00
18
2C
ENDCHAR
STARTCHAR uni1E19
ENCODING 7705
SWIDTH 519 0
DWIDTH 7 0
BBX 6 10 0 -3
BITMAP
38
6C
FC
E0
E0
64
3C
00
30
58
ENDCHAR
STARTCHAR uni1E1A
ENCODING 7706
SWIDTH 629 0
DWIDTH 9 0
BBX 8 13 0 -3
BITMAP
FF
71
70
72
7E
72
70
71
71
FF
00
34
58
ENDCHAR
STARTCHAR uni1E1B
ENCODING 7707
SWIDTH 519 0
DWIDTH 7 0
BBX 6 10 0 -3
BITMAP
38
6C
FC
E0
E0
64
3C
00
34
58
ENDCHAR
STARTCHAR uni1E1C
ENCODING 7708
SWIDTH 629 0
DWIDTH 9 0
BBX 8 16 0 -3
BITMAP
44
38
00
FF
71
70
72
7E
72
70
71
71
FF
10
08
38
ENDCHAR
STARTCHAR uni1E1D
ENCODING 7709
SWIDTH 519 0
DWIDTH 7 0
BBX 6 13 0 -3
BITMAP
44
38
00
38
6C
FC
E0
E0
64
3C
10
08
38
ENDCHAR
STARTCHAR uni1E1E
ENCODING 7710
SWIDTH 593 0
DWIDTH 9 0
BBX 8 13 0 0
BITMAP
18
18
00
FF
71
70
72
7E
72
70
70
70
F8
ENDCHAR
STARTCHAR uni1E1F
ENCODING 7711
SWIDTH 342 0
DWIDTH 5 0
BBX 6 14 0 0
BITMAP
30
30
00
38
6C
6C
70
F8
70
70
70
70
70
F8
ENDCHAR
STARTCHAR uni1E20
ENCODING 7712
SWIDTH 726 0
DWIDTH 10 0
BBX 10 12 0 0
BITMAP
3E00
0000
1F00
7180
6080
E000
E000
E000
E7C0
6380
7380
1F00
ENDCHAR
STARTCHAR uni1E21
ENCODING 7713
SWIDTH 533 0
DWIDTH 8 0
BBX 8 12 0 -3
BITMAP
7C
00
7F
EE
EE
EC
78
30
7E
CF
E7
7E
ENDCHAR
STARTCHAR uni1E22
ENCODING 7714
SWIDTH 807 0
DWIDTH 12 0
BBX 11 13 0 0
BITMAP
0600
0600
0000
FBE0
71C0
71C0
71C0
7FC0
71C0
71C0
71C0
71C0
FBE0
ENDCHAR
STARTCHAR uni1E23
ENCODING 7715
SWIDTH 631 0
DWIDTH 10 0
BBX 10 14 0 0
BITMAP
3000
3000
0000
F000
7000
7000
7000
7700
7B80
7380
7380
7380
7380
FBC0
ENDCHAR
STARTCHAR uni1E24
ENCODING 7716
SWIDTH 807 0
DWIDTH 12 0
BBX 11 13 0 -3
BITMAP
FBE0
71C0
71C0
71C0
7FC0
71C0
71C0
71C0
71C0
FBE0
0000
0600
0600
ENDCHAR
STARTCHAR uni1E25
ENCODING 7717
SWIDTH 631 0
DWIDTH 10 0
BBX 10 14 0 -3
BITMAP
F000
7000
7000
7000
7700
7B80
7380
7380
7380
7380
FBC0
0000
0C00
0C00
ENDCHAR
STARTCHAR uni1E26
ENCODING 7718
SWIDTH 807 0
DWIDTH 12 0
BBX 11 13 0 0
BITMAP
1B00
1B00
0000
FBE0
71C0
71C0
71C0
7FC0
71C0
71C0
71C0
71C0
FBE0
ENDCHAR
STARTCHAR uni1E27
ENCODING 7719
SWIDTH 631 0
DWIDTH 10 0
BBX 10 14 0 0
BITMAP
6C00
6C00
0000
F000
7000
7000
7000
7700
7B80
7380
7380
7380
7380
FBC0
ENDCHAR
STARTCHAR uni1E28
ENCODING 7720
SWIDTH 807 0
DWIDTH 12 0
BBX 11 13 0 -3
BITMAP
FBE0
71C0
71C0
71C0
7FC0
71C0
71C0
71C0
71C0
FBE0
0400
0200
0E00
ENDCHAR
STARTCHAR uni1E29
ENCODING 7721
SWIDTH 631 0
DWIDTH 10 0
BBX 10 14 0 -3
BITMAP
F000
7000
7000
7000
7700
7B80
7380
7380
7380
7380
FBC0
0800
0400
1C00
ENDCHAR
STARTCHAR uni1E2A
ENCODING 7722
SWIDTH 807 0
DWIDTH 12 0
BBX 11 13 0 -3
BITMAP
FBE0
71C0
71C0
71C0
7FC0
71C0
71C0
71C0
71C0
FBE0
0000
1100
0E00
ENDCHAR
STARTCHAR uni1E2B
ENCODING 7723
SWIDTH 631 0
DWIDTH 10 0
BBX 10 14 0 -3
BITMAP
F000
7000
7000
7000
7700
7B80
7380
7380
7380
7380
FBC0
0000
2200
1C00
ENDCHAR
STARTCHAR uni1E2C
ENCODING 7724
SWIDTH 384 0
DWIDTH 6 0
BBX 5 13 0 -3
BITMAP
F8
70
70
70
70
70
70
70
70
F8
00
68
B0
ENDCHAR
STARTCHAR uni1E2D
ENCODING 7725
SWIDTH 316 0
DWIDTH 5 0
BBX 5 14 0 -3
BITMAP
60
F0
60
00
F0
70
70
70
70
70
F8
00
68
B0
ENDCHAR
STARTCHAR uni1E2E
ENCODING 7726
SWIDTH 384 0
DWIDTH 6 0
BBX 5 15 0 0
BITMAP
30
60
00
D8
D8
00
F8
70
70
70
70
70
70
70
F8
ENDCHAR
STARTCHAR uni1E2F
ENCODING 7727
SWIDTH 316 0
DWIDTH 5 0
BBX 5 13 0 0
BITMAP
30
60
00
D8
D8
00
F0
70
70
70
70
70
F8
ENDCHAR
STARTCHAR uni1E30
ENCODING 7728
SWIDTH 707 0
DWIDTH 10 0
BBX 10 13 0 0
BITMAP
0600
0C00
0000
FBC0
7180
7300
7600
7C00
7E00
7700
7300
7380
F9C0
ENDCHAR
STARTCHAR uni1E31
ENCODING 7729
SWIDTH 582 0
DWIDTH 9 0
BBX 9 14 0 0
BITMAP
1800
3000
0000
F000
7000
7000
7000
7700
7600
7C00
7C00
7E00
7700
F380
ENDCHAR
STARTCHAR uni1E32
ENCODING 7730
SWIDTH 707 0
DWIDTH 10 0
BBX 10 13 0 -3
BITMAP
FBC0
7180
7300
7600
7C00
7E00
7700
7300
7380
F9C0
0000
0C00
0C00
ENDCHAR
STARTCHAR uni1E33
ENCODING 7731
SWIDTH 582 0
DWIDTH 9 0
BBX 9 14 0 -3
BITMAP
F000
7000
7000
7000
7700
7600
7C00
7C00
7E00
7700
F380
0000
1800
1800
ENDCHAR
STARTCHAR uni1E34
ENCODING 7732
SWIDTH 707 0
DWIDTH 10 0
BBX 10 12 0 -2
BITMAP
FBC0
7180
7300
7600
7C00
7E00
7700
7300
7380
F9C0
0000
3E00
ENDCHAR
STARTCHAR uni1E35
ENCODING 7733
SWIDTH 582 0
DWIDTH 9 0
BBX 9 13 0 -2
BITMAP
F000
7000
7000
7000
7700
7600
7C00
7C00
7E00
7700
F380
0000
3E00
ENDCHAR
STARTCHAR uni1E36
ENCODING 7734
SWIDTH 585 0
DWIDTH 9 0
BBX 8 13 0 -3
BITMAP
F8
70
70
70
70
70
70
71
71
FF
00
18
18
ENDCHAR
STARTCHAR uni1E37
ENCODING 7735
SWIDTH 309 0
DWIDTH 5 0
BBX 5 14 0 -3
BITMAP
F0
70
70
70
70
70
70
70
70
70
F8
00
30
30
ENDCHAR
STARTCHAR uni1E38
ENCODING 7736
SWIDTH 585 0
DWIDTH 9 0
BBX 8 15 0 -3
BITMAP
7C
00
F8
70
70
70
70
70
70
71
71
FF
00
18
18
ENDCHAR
STARTCHAR uni1E39
ENCODING 7737
SWIDTH 309 0
DWIDTH 5 0
BBX 5 16 0 -3
BITMAP
F8
00
F0
70
70
70
70
70
70
70
70
70
F8
00
30
30
ENDCHAR
STARTCHAR uni1E3A
ENCODING 7738
SWIDTH 585 0
DWIDTH 9 0
BBX 8 12 0 -2
BITMAP
F8
70
70
70
70
70
70
71
71
FF
00
7C
ENDCHAR
STARTCHAR uni1E3B
ENCODING 7739
SWIDTH 309 0
DWIDTH 5 0
BBX 5 13 0 -2
BITMAP
F0
70
70
70
70
70
70
70
70
70
F8
00
F8
ENDCHAR
STARTCHAR uni1E3C
ENCODING 7740
SWIDTH 585 0
DWIDTH 9 0
BBX 8 13 0 -3
BITMAP
F8
70
70
70
70
70
70
71
71
FF
00
18
2C
ENDCHAR
STARTCHAR uni1E3D
ENCODING 7741
SWIDTH 309 0
DWIDTH 5 0
BBX 5 14 0 -3
BITMAP
F0
70
70
70
70
70
70
70
70
70
F8
00
30
58
ENDCHAR
STARTCHAR uni1E3E
ENCODING 7742
SWIDTH 918 0
DWIDTH 13 0
BBX 13 13 0 0
BITMAP
0300
0600
0000
F078
7070
78F0
78F0
5D70
5D70
4E70
4E70
4470
E0F8
ENDCHAR
STARTCHAR uni1E3F
ENCODING 7743
SWIDTH 948 0
DWIDTH 15 0
BBX 15 10 0 0
BITMAP
0180
0300
0000
F738
7BDC
739C
739C
739C
739C
FBDE
ENDCHAR
STARTCHAR uni1E40
ENCODING 7744
SWIDTH 918 0
DWIDTH 13 0
BBX 13 13 0 0
BITMAP
0300
0300
0000
F078
7070
78F0
78F0
5D70
5D70
4E70
4E70
4470
E0F8
ENDCHAR
STARTCHAR uni1E41
ENCODING 7745
SWIDTH 948 0
DWIDTH 15 0
BBX 15 10 0 0
BITMAP
0300
0300
0000
F738
7BDC
739C
739C
739C
739C
FBDE
ENDCHAR
STARTCHAR uni1E42
ENCODING 7746
SWIDTH 918 0
DWIDTH 13 0
BBX 13 13 0 -3
BITMAP
F078
7070
78F0
78F0
5D70
5D70
4E70
4E70
4470
E0F8
0000
0300
0300
ENDCHAR
STARTCHAR uni1E43
ENCODING 7747
SWIDTH 948 0
DWIDTH 15 0
BBX 15 10 0 -3
BITMAP
F738
7BDC
739C
739C
739C
739C
FBDE
0000
0300
0300
ENDCHAR
STARTCHAR uni1E44
ENCODING 7748
SWIDTH 739 0
DWIDTH 11 0
BBX 10 13 0 0
BITMAP
0C00
0C00
0000
F1C0
7880
7880
5C80
5C80
4E80
4E80
4780
4780
E380
ENDCHAR
STARTCHAR uni1E45
ENCODING 7749
SWIDTH 638 0
DWIDTH 10 0
BBX 10 10 0 0
BITMAP
0C00
0C00
0000
F700
7B80
7380
7380
7380
7380
FBC0
ENDCHAR
STARTCHAR uni1E46
ENCODING 7750
SWIDTH 739 0
DWIDTH 11 0
BBX 10 13 0 -3
BITMAP
F1C0
7880
7880
5C80
5C80
4E80
4E80
4780
4780
E380
0000
0C00
0C00
ENDCHAR
STARTCHAR uni1E47
ENCODING 7751
SWIDTH 638 0
DWIDTH 10 0
BBX 10 10 0 -3
BITMAP
F700
7B80
7380
7380
7380
7380
FBC0
0000
0C00
0C00
ENDCHAR
STARTCHAR uni1E48
ENCODING 7752
SWIDTH 739 0
DWIDTH 11 0
BBX 10 12 0 -2
BITMAP
F1C0
7880
7880
5C80
5C80
4E80
4E80
4780
4780
E380
0000
1F00
ENDCHAR
STARTCHAR uni1E49
ENCODING 7753
SWIDTH 638 0
DWIDTH 10 0
BBX 10 9 0 -2
BITMAP
F700
7B80
7380
7380
7380
7380
FBC0
0000
3E00
ENDCHAR
STARTCHAR uni1E4A
ENCODING 7754
SWIDTH 739 0
DWIDTH 11 0
BBX 10 13 0 -3
BITMAP
F1C0
7880
7880
5C80
5C80
4E80
4E80
4780
4780
E380
0000
0C00
1600
ENDCHAR
STARTCHAR uni1E4B
ENCODING 7755
SWIDTH 638 0
DWIDTH 10 0
BBX 10 10 0 -3
BITMAP
F700
7B80
7380
7380
7380
7380
FBC0
0000
0C00
1600
ENDCHAR
STARTCHAR uni1E4C
ENCODING 7756
SWIDTH 768 0
DWIDTH 11 0
BBX 10 15 0 0
BITMAP
0600
0C00
0000
1A00
2C00
0000
1E00
7380
6180
E1C0
E1C0
E1C0
6180
7380
1E00
ENDCHAR
STARTCHAR uni1E4D
ENCODING 7757
SWIDTH 585 0
DWIDTH 9 0
BBX 8 13 0 0
BITMAP
0C
18
00
34
58
00
3C
66
E7
E7
E7
66
3C
ENDCHAR
STARTCHAR uni1E4E
ENCODING 7758
SWIDTH 768 0
DWIDTH 11 0
BBX 10 15 0 0
BITMAP
3600
3600
0000
1A00
2C00
0000
1E00
7380
6180
E1C0
E1C0
E1C0
6180
7380
1E00
ENDCHAR
STARTCHAR uni1E4F
ENCODING 7759
SWIDTH 585 0
DWIDTH 9 0
BBX 8 13 0 0
BITMAP
6C
6C
00
34
58
00
3C
66
E7
E7
E7
66
3C
ENDCHAR
STARTCHAR uni1E50
ENCODING 7760
SWIDTH 768 0
DWIDTH 11 0
BBX 10 15 0 0
BITMAP
1800
0C00
0000
1F00
0000
1E00
7380
6180
E1C0
E1C0
E1C0
E1C0
6180
7380
1E00
ENDCHAR
STARTCHAR uni1E51
ENCODING 7761
SWIDTH 585 0
DWIDTH 9 0
BBX 8 12 0 0
BITMAP
30
18
00
3E
00
3C
66
E7
E7
E7
66
3C
ENDCHAR
STARTCHAR uni1E52
ENCODING 7762
SWIDTH 768 0
DWIDTH 11 0
BBX 10 15 0 0
BITMAP
0600
0C00
0000
1F00
0000
1E00
7380
6180
E1C0
E1C0
E1C0
E1C0
6180
7380
1E00
ENDCHAR
STARTCHAR uni1E53
ENCODING 7763
SWIDTH 585 0
DWIDTH 9 0
BBX 8 12 0 0
BITMAP
0C
18
00
3E
00
3C
66
E7
E7
E7
66
3C
ENDCHAR
STARTCHAR uni1E54
ENCODING 7764
SWIDTH 650 0
DWIDTH 9 0
BBX 9 13 0 0
BITMAP
0C00
1800
0000
FF00
7380
7380
7380
7380
7F00
7000
7000
7000
F800
ENDCHAR
STARTCHAR uni1E55
ENCODING 7765
SWIDTH 615 0
DWIDTH 9 0
BBX 9 13 0 -3
BITMAP
0C00
1800
0000
F600
7B00
7380
7380
7380
7300
7E00
7000
7000
F800
ENDCHAR
STARTCHAR uni1E56
ENCODING 7766
SWIDTH 650 0
DWIDTH 9 0
BBX 9 13 0 0
BITMAP
0C00
0C00
0000
FF00
7380
7380
7380
7380
7F00
7000
7000
7000
F800
ENDCHAR
STARTCHAR uni1E57
ENCODING 7767
SWIDTH 615 0
DWIDTH 9 0
BBX 9 13 0 -3
BITMAP
1800
1800
0000
F600
7B00
7380
7380
7380
7300
7E00
7000
7000
F800
ENDCHAR
STARTCHAR uni1E58
ENCODING 7768
SWIDTH 684 0
DWIDTH 10 0
BBX 10 13 0 0
BITMAP
0C00
0C00
0000
FF00
7380
7380
7300
7E00
7700
7700
7380
7380
FBC0
ENDCHAR
STARTCHAR uni1E59
ENCODING 7769
SWIDTH 440 0
DWIDTH 6 0
BBX 6 10 0 0
BITMAP
30
30
00
EC
7C
70
70
70
70
F8
ENDCHAR
STARTCHAR uni1E5A
ENCODING 7770
SWIDTH 684 0
DWIDTH 10 0
BBX 10 13 0 -3
BITMAP
FF00
7380
7380
7300
7E00
7700
7700
7380
7380
FBC0
0000
0C00
0C00
ENDCHAR
STARTCHAR uni1E5B
ENCODING 7771
SWIDTH 440 0
DWIDTH 6 0
BBX 6 10 0 -3
BITMAP
EC
7C
70
70
70
70
F8
00
30
30
ENDCHAR
STARTCHAR uni1E5C
ENCODING 7772
SWIDTH 684 0
DWIDTH 10 0
BBX 10 15 0 -3
BITMAP
3E00
0000
FF00
7380
7380
7300
7E00
7700
7700
7380
7380
FBC0
0000
0C00
0C00
ENDCHAR
STARTCHAR uni1E5D
ENCODING 7773
SWIDTH 440 0
DWIDTH 6 0
BBX 6 12 0 -3
BITMAP
7C
00
EC
7C
70
70
70
70
F8
00
30
30
ENDCHAR
STARTCHAR uni1E5E
ENCODING 7774
SWIDTH 684 0
DWIDTH 10 0
BBX 10 12 0 -2
BITMAP
FF00
7380
7380
7300
7E00
7700
7700
7380
7380
FBC0
0000
3E00
ENDCHAR
STARTCHAR uni1E5F
ENCODING 7775
SWIDTH 440 0
DWIDTH 6 0
BBX 6 9 0 -2
BITMAP
EC
7C
70
70
70
70
F8
00
F8
ENDCHAR
STARTCHAR uni1E60
ENCODING 7776
SWIDTH 561 0
DWIDTH 8 0
BBX 7 13 0 0
BITMAP
30
30
00
7C
E6
E2
F0
7C
1E
0E
8E
CE
7C
ENDCHAR
STARTCHAR uni1E61
ENCODING 7777
SWIDTH 446 0
DWIDTH 7 0
BBX 6 10 0 0
BITMAP
30
30
00
7C
E4
F0
78
3C
9C
F8
ENDCHAR
STARTCHAR uni1E62
ENCODING 7778
SWIDTH 561 0
DWIDTH 8 0
BBX 7 13 0 -3
BITMAP
7C
E6
E2
F0
7C
1E
0E
8E
CE
7C
00
18
18
ENDCHAR
STARTCHAR uni1E63
ENCODING 7779
SWIDTH 446 0
DWIDTH 7 0
BBX 6 10 0 -3
BITMAP
7C
E4
F0
78
3C
9C
F8
00
30
30
ENDCHAR
STARTCHAR uni1E64
ENCODING 7780
SWIDTH 561 0
DWIDTH 8 0
BBX 7 16 0 0
BITMAP
18
18
00
18
30
00
7C
E6
E2
F0
7C
1E
0E
8E
CE
7C
ENDCHAR
STARTCHAR uni1E65
ENCODING 7781
SWIDTH 446 0
DWIDTH 7 0
BBX 6 13 0 0
BITMAP
30
30
00
18
30
00
7C
E4
F0
78
3C
9C
F8
ENDCHAR
STARTCHAR uni1E66
ENCODING 7782
SWIDTH 561 0
DWIDTH 8 0
BBX 7 15 0 0
BITMAP
30
30
00
68
30
00
7C
E6
E0
F0
7C
1E
0E
CE
7C
ENDCHAR
STARTCHAR uni1E67
ENCODING 7783
SWIDTH 446 0
DWIDTH 7 0
BBX 6 13 0 0
BITMAP
30
30
00
68
30
00
7C
E4
F0
78
3C
9C
F8
ENDCHAR
STARTCHAR uni1E68
ENCODING 7784
SWIDTH 561 0
DWIDTH 8 0
BBX 7 16 0 -3
BITMAP
30
30
00
7C
E6
E2
F0
7C
1E
0E
8E
CE
7C
00
18
18
ENDCHAR
STARTCHAR uni1E69
ENCODING 7785
SWIDTH 446 0
DWIDTH 7 0
BBX 6 13 0 -3
BITMAP
30
30
00
7C
E4
F0
78
3C
9C
F8
00
30
30
ENDCHAR
STARTCHAR uni1E6A
ENCODING 7786
SWIDTH 624 0
DWIDTH 9 0
BBX 9 13 0 0
BITMAP
0C00
0C00
0000
FF80
9C80
9C80
1C00
1C00
1C00
1C00
1C00
1C00
3E00
ENDCHAR
STARTCHAR uni1E6B
ENCODING 7787
SWIDTH 370 0
DWIDTH 5 0
BBX 5 12 0 0
BITMAP
30
30
00
30
70
F8
70
70
70
70
70
38
ENDCHAR
STARTCHAR uni1E6C
ENCODING 7788
SWIDTH 624 0
DWIDTH 9 0
BBX 9 13 0 -3
BITMAP
FF80
9C80
9C80
1C00
1C00
1C00
1C00
1C00
1C00
3E00
0000
0C00
0C00
ENDCHAR
STARTCHAR uni1E6D
ENCODING 7789
SWIDTH 370 0
DWIDTH 5 0
BBX 5 12 0 -3
BITMAP
30
70
F8
70
70
70
70
70
38
00
30
30
ENDCHAR
STARTCHAR uni1E6E
ENCODING 7790
SWIDTH 624 0
DWIDTH 9 0
BBX 9 12 0 -2
BITMAP
FF80
9C80
9C80
1C00
1C00
1C00
1C00
1C00
1C00
3E00
0000
3E00
ENDCHAR
STARTCHAR uni1E6F
ENCODING 7791
SWIDTH 370 0
DWIDTH 5 0
BBX 5 11 0 -2
BITMAP
30
70
F8
70
70
70
70
70
38
00
F8
ENDCHAR
STARTCHAR uni1E70
ENCODING 7792
SWIDTH 624 0
DWIDTH 9 0
BBX 9 13 0 -3
BITMAP
FF80
9C80
9C80
1C00
1C00
1C00
1C00
1C00
1C00
3E00
0000
0C00
1600
ENDCHAR
STARTCHAR uni1E71
ENCODING 7793
SWIDTH 370 0
DWIDTH 5 0
BBX 5 12 0 -3
BITMAP
30
70
F8
70
70
70
70
70
38
00
30
58
ENDCHAR
STARTCHAR uni1E72
ENCODING 7794
SWIDTH 786 0
DWIDTH 12 0
BBX 11 13 0 -3
BITMAP
FBE0
71C0
71C0
71C0
71C0
71C0
71C0
71C0
3180
1F00
0000
1B00
1B00
ENDCHAR
STARTCHAR uni1E73
ENCODING 7795
SWIDTH 629 0
DWIDTH 10 0
BBX 10 10 0 -3
BITMAP
F780
7380
7380
7380
7380
7780
3BC0
0000
1B00
1B00
ENDCHAR
STARTCHAR uni1E74
ENCODING 7796
SWIDTH 786 0
DWIDTH 12 0
BBX 11 13 0 -3
BITMAP
FBE0
71C0
71C0
71C0
71C0
71C0
71C0
71C0
3180
1F00
0000
0D00
1600
ENDCHAR
STARTCHAR uni1E75
ENCODING 7797
SWIDTH 629 0
DWIDTH 10 0
BBX 10 10 0 -3
BITMAP
F780
7380
7380
7380
7380
7780
3BC0
0000
0D00
1600
ENDCHAR
STARTCHAR uni1E76
ENCODING 7798
SWIDTH 786 0
DWIDTH 12 0
BBX 11 13 0 -3
BITMAP
FBE0
71C0
71C0
71C0
71C0
71C0
71C0
71C0
3180
1F00
0000
0600
0B00
ENDCHAR
STARTCHAR uni1E77
ENCODING 7799
SWIDTH 629 0
DWIDTH 10 0
BBX 10 10 0 -3
BITMAP
F780
7380
7380
7380
7380
7780
3BC0
0000
0C00
1600
ENDCHAR
STARTCHAR uni1E78
ENCODING 7800
SWIDTH 786 0
DWIDTH 12 0
BBX 11 16 0 0
BITMAP
0600
0C00
0000
0D00
1600
0000
FBE0
71C0
71C0
71C0
71C0
71C0
71C0
71C0
3180
1F00
ENDCHAR
STARTCHAR uni1E79
ENCODING 7801
SWIDTH 629 0
DWIDTH 10 0
BBX 10 13 0 0
BITMAP
0600
0C00
0000
0D00
1600
0000
F780
7380
7380
7380
7380
7780
3BC0
ENDCHAR
STARTCHAR uni1E7A
ENCODING 7802
SWIDTH 786 0
DWIDTH 12 0
BBX 11 15 0 0
BITMAP
1B00
1B00
0000
1F00
0000
FBE0
71C0
71C0
71C0
71C0
71C0
71C0
71C0
3180
1F00
ENDCHAR
STARTCHAR uni1E7B
ENCODING 7803
SWIDTH 629 0
DWIDTH 10 0
BBX 10 12 0 0
BITMAP
3600
3600
0000
3E00
0000
F780
7380
7380
7380
7380
7780
3BC0
ENDCHAR
STARTCHAR uni1E7C
ENCODING 7804
SWIDTH 645 0
DWIDTH 9 0
BBX 10 13 -1 0
BITMAP
1A00
2C00
0000
F9C0
7080
7080
3900
3900
3900
1E00
1E00
0C00
0C00
ENDCHAR
STARTCHAR uni1E7D
ENCODING 7805
SWIDTH 520 0
DWIDTH 7 0
BBX 8 10 -1 0
BITMAP
1A
2C
00
F7
72
72
3C
3C
18
18
ENDCHAR
STARTCHAR uni1E7E
ENCODING 7806
SWIDTH 645 0
DWIDTH 9 0
BBX 10 13 -1 -3
BITMAP
F9C0
7080
7080
3900
3900
3900
1E00
1E00
0C00
0C00
0000
0C00
0C00
ENDCHAR
STARTCHAR uni1E7F
ENCODING 7807
SWIDTH 520 0
DWIDTH 7 0
BBX 8 10 -1 -3
BITMAP
F7
72
72
3C
3C
18
18
00
18
18
ENDCHAR
STARTCHAR Wgrave
ENCODING 7808
SWIDTH 933 0
DWIDTH 14 0
BBX 15 13 -1 0
BITMAP
0600
0300
0000
F9CE
71C4
71C4
3AE4
3AE8
3AE8
3AE8
1C70
1C70
1C70
ENDCHAR
STARTCHAR wgrave
ENCODING 7809
SWIDTH 774 0
DWIDTH 11 0
BBX 12 10 -1 0
BITMAP
0C00
0600
0000
F370
7320
77A0
77A0
39C0
39C0
39C0
ENDCHAR
STARTCHAR Wacute
ENCODING 7810
SWIDTH 933 0
DWIDTH 14 0
BBX 15 13 -1 0
BITMAP
0180
0300
0000
F9CE
71C4
71C4
3AE4
3AE8
3AE8
3AE8
1C70
1C70
1C70
ENDCHAR
STARTCHAR wacute
ENCODING 7811
SWIDTH 774 0
DWIDTH 11 0
BBX 12 10 -1 0
BITMAP
0300
0600
0000
F370
7320
77A0
77A0
39C0
39C0
39C0
ENDCHAR
STARTCHAR Wdieresis
ENCODING 7812
SWIDTH 933 0
DWIDTH 14 0
BBX 15 13 -1 0
BITMAP
06C0
06C0
0000
F9CE
71C4
71C4
3AE4
3AE8
3AE8
3AE8
1C70
1C70
1C70
ENDCHAR
STARTCHAR wdieresis
ENCODING 7813
SWIDTH 774 0
DWIDTH 11 0
BBX 12 10 -1 0
BITMAP
1B00
1B00
0000
F370
7320
77A0
77A0
39C0
39C0
39C0
ENDCHAR
STARTCHAR uni1E86
ENCODING 7814
SWIDTH 933 0
DWIDTH 14 0
BBX 15 13 -1 0
BITMAP
0300
0300
0000
F9CE
71C4
71C4
3AE4
3AE8
3AE8
3AE8
1C70
1C70
1C70
ENDCHAR
STARTCHAR uni1E87
ENCODING 7815
SWIDTH 774 0
DWIDTH 11 0
BBX 12 10 -1 0
BITMAP
0600
0600
0000
F370
7320
77A0
77A0
39C0
39C0
39C0
ENDCHAR
STARTCHAR uni1E88
ENCODING 7816
SWIDTH 933 0
DWIDTH 14 0
BBX 15 13 -1 -3
BITMAP
F9CE
71C4
71C4
3AE4
3AE8
3AE8
3AE8
1C70
1C70
1C70
0000
0180
0180
ENDCHAR
STARTCHAR uni1E89
ENCODING 7817
SWIDTH 774 0
DWIDTH 11 0
BBX 12 10 -1 -3
BITMAP
F370
7320
77A0
77A0
39C0
39C0
39C0
0000
0600
0600
ENDCHAR
STARTCHAR uni1E8A
ENCODING 7818
SWIDTH 634 0
DWIDTH 9 0
BBX 9 13 0 0
BITMAP
1800
1800
0000
FB80
7100
3A00
3A00
1C00
1C00
2E00
2E00
4700
EF80
ENDCHAR
STARTCHAR uni1E8B
ENCODING 7819
SWIDTH 522 0
DWIDTH 8 0
BBX 8 10 0 0
BITMAP
18
18
00
F7
72
3C
3C
3C
4E
EF
ENDCHAR
STARTCHAR uni1E8C
ENCODING 7820
SWIDTH 634 0
DWIDTH 9 0
BBX 9 13 0 0
BITMAP
3600
3600
0000
FB80
7100
3A00
3A00
1C00
1C00
2E00
2E00
4700
EF80
ENDCHAR
STARTCHAR uni1E8D
ENCODING 7821
SWIDTH 522 0
DWIDTH 8 0
BBX 8 10 0 0
BITMAP
6C
6C
00
F7
72
3C
3C
3C
4E
EF
ENDCHAR
STARTCHAR uni1E8E
ENCODING 7822
SWIDTH 617 0
DWIDTH 9 0
BBX 9 13 0 0
BITMAP
1800
1800
0000
FB80
7100
7100
3A00
3A00
1C00
1C00
1C00
1C00
3E00
ENDCHAR
STARTCHAR uni1E8F
ENCODING 7823
SWIDTH 524 0
DWIDTH 8 0
BBX 8 13 0 -3
BITMAP
18
18
00
F7
72
72
3C
3C
18
18
10
F0
60
ENDCHAR
STARTCHAR uni1E90
ENCODING 7824
SWIDTH 614 0
DWIDTH 9 0
BBX 8 13 0 0
BITMAP
18
2C
00
FF
87
8E
1C
1C
38
38
71
E1
FF
ENDCHAR
STARTCHAR uni1E91
ENCODING 7825
SWIDTH 483 0
DWIDTH 7 0
BBX 7 10 0 0
BITMAP
30
58
00
FE
DC
9C
38
72
76
FE
ENDCHAR
STARTCHAR uni1E92
ENCODING 7826
SWIDTH 614 0
DWIDTH 9 0
BBX 8 13 0 -3
BITMAP
FF
87
8E
1C
1C
38
38
71
E1
FF
00
18
18
ENDCHAR
STARTCHAR uni1E93
ENCODING 7827
SWIDTH 483 0
DWIDTH 7 0
BBX 7 10 0 -3
BITMAP
FE
DC
9C
38
72
76
FE
00
18
18
ENDCHAR
STARTCHAR uni1E94
ENCODING 7828
SWIDTH 614 0
DWIDTH 9 0
BBX 8 12 0 -2
BITMAP
FF
87
8E
1C
1C
38
38
71
E1
FF
00
7C
ENDCHAR
STARTCHAR uni1E95
ENCODING 7829
SWIDTH 483 0
DWIDTH 7 0
BBX 7 9 0 -2
BITMAP
FE
DC
9C
38
72
76
FE
00
7C
ENDCHAR
STARTCHAR uni1E96
ENCODING 7830
SWIDTH 631 0
DWIDTH 10 0
BBX 10 13 0 -2
BITMAP
F000
7000
7000
7000
7700
7B80
7380
7380
7380
7380
FBC0
0000
3E00
ENDCHAR
STARTCHAR uni1E97
ENCODING 7831
SWIDTH 370 0
DWIDTH 5 0
BBX 5 12 0 0
BITMAP
D8
D8
00
30
70
F8
70
70
70
70
70
38
ENDCHAR
STARTCHAR uni1E98
ENCODING 7832
SWIDTH 774 0
DWIDTH 11 0
BBX 12 11 -1 0
BITMAP
0600
0900
0600
0000
F370
7320
77A0
77A0
39C0
39C0
39C0
ENDCHAR
STARTCHAR uni1E99
ENCODING 7833
SWIDTH 524 0
DWIDTH 8 0
BBX 8 14 0 -3
BITMAP
18
24
18
00
F7
72
72
3C
3C
18
18
10
F0
60
ENDCHAR
STARTCHAR uni1EA0
ENCODING 7840
SWIDTH 644 0
DWIDTH 9 0
BBX 10 13 -1 -3
BITMAP
0C00
0C00
1E00
1E00
2700
2700
3F00
4380
4380
E7C0
0000
0C00
0C00
ENDCHAR
STARTCHAR uni1EA1
ENCODING 7841
SWIDTH 544 0
DWIDTH 8 0
BBX 7 10 1 -3
BITMAP
78
DC
1C
7C
DC
DC
7E
00
18
18
ENDCHAR
STARTCHAR uni1EA4
ENCODING 7844
SWIDTH 644 0
DWIDTH 9 0
BBX 10 15 -1 0
BITMAP
0600
0C00
0000
0C00
1600
0000
0C00
0C00
1E00
1E00
2700
3F00
4380
4380
E7C0
ENDCHAR
STARTCHAR uni1EA5
ENCODING 7845
SWIDTH 544 0
DWIDTH 8 0
BBX 7 13 0 0
BITMAP
18
30
00
30
58
00
78
DC
1C
7C
DC
DC
7E
ENDCHAR
STARTCHAR uni1EA6
ENCODING 7846
SWIDTH 644 0
DWIDTH 9 0
BBX 10 15 -1 0
BITMAP
1800
0C00
0000
0C00
1600
0000
0C00
0C00
1E00
1E00
2700
3F00
4380
4380
E7C0
ENDCHAR
STARTCHAR uni1EA7
ENCODING 7847
SWIDTH 544 0
DWIDTH 8 0
BBX 7 13 0 0
BITMAP
60
30
00
30
58
00
78
DC
1C
7C
DC
DC
7E
ENDCHAR
STARTCHAR uni1EAA
ENCODING 7850
SWIDTH 644 0
DWIDTH 9 0
BBX 10 15 -1 0
BITMAP
0D00
1600
0000
0C00
1600
0000
0C00
0C00
1E00
1E00
2700
3F00
4380
4380
E7C0
ENDCHAR
STARTCHAR uni1EAB
ENCODING 7851
SWIDTH 544 0
DWIDTH 8 0
BBX 7 13 0 0
BITMAP
34
58
00
30
58
00
78
DC
1C
7C
DC
DC
7E
ENDCHAR
STARTCHAR uni1EAC
ENCODING 7852
SWIDTH 644 0
DWIDTH 9 0
BBX 10 16 -1 -3
BITMAP
0C00
1600
0000
0C00
0C00
1E00
1E00
2700
2700
3F00
4380
4380
E7C0
0000
0C00
0C00
ENDCHAR
STARTCHAR uni1EAD
ENCODING 7853
SWIDTH 544 0
DWIDTH 8 0
BBX 7 13 1 -3
BITMAP
30
58
00
78
DC
1C
7C
DC
DC
7E
00
18
18
ENDCHAR
STARTCHAR uni1EAE
ENCODING 7854
SWIDTH 644 0
DWIDTH 9 0
BBX 10 16 -1 0
BITMAP
0600
0C00
0000
1100
0E00
0000
0C00
0C00
1E00
1E00
2700
2700
3F00
4380
4380
E7C0
ENDCHAR
STARTCHAR uni1EAF
ENCODING 7855
SWIDTH 544 0
DWIDTH 8 0
BBX 7 13 1 0
BITMAP
18
30
00
44
38
00
78
DC
1C
7C
DC
DC
7E
ENDCHAR
STARTCHAR uni1EB0
ENCODING 7856
SWIDTH 644 0
DWIDTH 9 0
BBX 10 16 -1 0
BITMAP
1800
0C00
0000
1100
0E00
0000
0C00
0C00
1E00
1E00
2700
2700
3F00
4380
4380
E7C0
ENDCHAR
STARTCHAR uni1EB1
ENCODING 7857
SWIDTH 544 0
DWIDTH 8 0
BBX 7 13 1 0
BITMAP
30
18
00
44
38
00
78
DC
1C
7C
DC
DC
7E
ENDCHAR
STARTCHAR uni1EB4
ENCODING 7860
SWIDTH 644 0
DWIDTH 9 0
BBX 10 16 -1 0
BITMAP
0D00
1600
0000
1100
0E00
0000
0C00
0C00
1E00
1E00
2700
2700
3F00
4380
4380
E7C0
ENDCHAR
STARTCHAR uni1EB5
ENCODING 7861
SWIDTH 544 0
DWIDTH 8 0
BBX 7 13 1 0
BITMAP
34
58
00
44
38
00
78
DC
1C
7C
DC
DC
7E
ENDCHAR
STARTCHAR uni1EB6
ENCODING 7862
SWIDTH 644 0
DWIDTH 9 0
BBX 10 16 -1 -3
BITMAP
1100
0E00
0000
0C00
0C00
1E00
1E00
2700
2700
3F00
4380
4380
E7C0
0000
0C00
0C00
ENDCHAR
STARTCHAR uni1EB7
ENCODING 7863
SWIDTH 544 0
DWIDTH 8 0
BBX 7 13 1 -3
BITMAP
44
38
00
78
DC
1C
7C
DC
DC
7E
00
18
18
ENDCHAR
STARTCHAR uni1EB8
ENCODING 7864
SWIDTH 629 0
DWIDTH 9 0
BBX 8 13 0 -3
BITMAP
FF
71
70
72
7E
72
70
71
71
FF
00
18
18
ENDCHAR
STARTCHAR uni1EB9
ENCODING 7865
SWIDTH 519 0
DWIDTH 7 0
BBX 6 10 0 -3
BITMAP
38
6C
FC
E0
E0
64
3C
00
30
30
ENDCHAR
STARTCHAR uni1EBC
ENCODING 7868
SWIDTH 629 0
DWIDTH 9 0
BBX 8 13 0 0
BITMAP
34
58
00
FF
71
70
72
7E
72
70
71
71
FF
ENDCHAR
STARTCHAR uni1EBD
ENCODING 7869
SWIDTH 519 0
DWIDTH 7 0
BBX 6 10 0 0
BITMAP
34
58
00
38
6C
FC
E0
E0
64
3C
ENDCHAR
STARTCHAR uni1EBE
ENCODING 7870
SWIDTH 629 0
DWIDTH 9 0
BBX 8 15 0 0
BITMAP
0C
18
00
18
2C
00
FF
71
70
72
7E
72
70
71
FF
ENDCHAR
STARTCHAR uni1EBF
ENCODING 7871
SWIDTH 519 0
DWIDTH 7 0
BBX 6 13 0 0
BITMAP
18
30
00
30
58
00
38
6C
FC
E0
E0
64
3C
ENDCHAR
STARTCHAR uni1EC0
ENCODING 7872
SWIDTH 629 0
DWIDTH 9 0
BBX 8 15 0 0
BITMAP
30
18
00
18
2C
00
FF
71
70
72
7E
72
70
71
FF
ENDCHAR
STARTCHAR uni1EC1
ENCODING 7873
SWIDTH 519 0
DWIDTH 7 0
BBX 6 13 0 0
BITMAP
60
30
00
30
58
00
38
6C
FC
E0
E0
64
3C
ENDCHAR
STARTCHAR uni1EC4
ENCODING 7876
SWIDTH 629 0
DWIDTH 9 0
BBX 8 15 0 0
BITMAP
1A
2C
00
18
2C
00
FF
71
70
72
7E
72
70
71
FF
ENDCHAR
STARTCHAR uni1EC5
ENCODING 7877
SWIDTH 519 0
DWIDTH 7 0
BBX 6 13 0 0
BITMAP
34
58
00
30
58
00
38
6C
FC
E0
E0
64
3C
ENDCHAR
STARTCHAR uni1EC6
ENCODING 7878
SWIDTH 629 0
DWIDTH 9 0
BBX 8 16 0 -3
BITMAP
18
2C
00
FF
71
70
72
7E
72
70
71
71
FF
00
18
18
ENDCHAR
STARTCHAR uni1EC7
ENCODING 7879
SWIDTH 519 0
DWIDTH 7 0
BBX 6 13 0 -3
BITMAP
30
58
00
38
6C
FC
E0
E0
64
3C
00
30
30
ENDCHAR
STARTCHAR uni1ECA
ENCODING 7882
SWIDTH 384 0
DWIDTH 6 0
BBX 5 13 0 -3
BITMAP
F8
70
70
70
70
70
70
70
70
F8
00
30
30
ENDCHAR
STARTCHAR uni1ECB
ENCODING 7883
SWIDTH 316 0
DWIDTH 5 0
BBX 5 14 0 -3
BITMAP
60
F0
60
00
F0
70
70
70
70
70
F8
00
30
30
ENDCHAR
STARTCHAR uni1ECC
ENCODING 7884
SWIDTH 768 0
DWIDTH 11 0
BBX 10 13 0 -3
BITMAP
1E00
7380
6180
E1C0
E1C0
E1C0
E1C0
6180
7380
1E00
0000
0C00
0C00
ENDCHAR
STARTCHAR uni1ECD
ENCODING 7885
SWIDTH 585 0
DWIDTH 9 0
BBX 8 10 0 -3
BITMAP
3C
66
E7
E7
E7
66
3C
00
18
18
ENDCHAR
STARTCHAR uni1ED0
ENCODING 7888
SWIDTH 768 0
DWIDTH 11 0
BBX 10 15 0 0
BITMAP
0600
0C00
0000
0C00
1600
0000
1E00
7380
6180
E1C0
E1C0
E1C0
6180
7380
1E00
ENDCHAR
STARTCHAR uni1ED1
ENCODING 7889
SWIDTH 585 0
DWIDTH 9 0
BBX 8 13 0 0
BITMAP
0C
18
00
18
2C
00
3C
66
E7
E7
E7
66
3C
ENDCHAR
STARTCHAR uni1ED2
ENCODING 7890
SWIDTH 768 0
DWIDTH 11 0
BBX 10 15 0 0
BITMAP
1800
0C00
0000
0C00
1600
0000
1E00
7380
6180
E1C0
E1C0
E1C0
6180
7380
1E00
ENDCHAR
STARTCHAR uni1ED3
ENCODING 7891
SWIDTH 585 0
DWIDTH 9 0
BBX 8 13 0 0
BITMAP
30
18
00
18
2C
00
3C
66
E7
E7
E7
66
3C
ENDCHAR
STARTCHAR uni1ED6
ENCODING 7894
SWIDTH 768 0
DWIDTH 11 0
BBX 10 15 0 0
BITMAP
0D00
1600
0000
0C00
1600
0000
1E00
7380
6180
E1C0
E1C0
E1C0
6180
7380
1E00
ENDCHAR
STARTCHAR uni1ED7
ENCODING 7895
SWIDTH 585 0
DWIDTH 9 0
BBX 8 13 0 0
BITMAP
1A
2C
00
18
2C
00
3C
66
E7
E7
E7
66
3C
ENDCHAR
STARTCHAR uni1ED8
ENCODING 7896
SWIDTH 768 0
DWIDTH 11 0
BBX 10 16 0 -3
BITMAP
0C00
1600
0000
1E00
7380
6180
E1C0
E1C0
E1C0
E1C0
6180
7380
1E00
0000
0C00
0C00
ENDCHAR
STARTCHAR uni1ED9
ENCODING 7897
SWIDTH 585 0
DWIDTH 9 0
BBX 8 13 0 -3
BITMAP
18
2C
00
3C
66
E7
E7
E7
66
3C
00
18
18
ENDCHAR
STARTCHAR uni1EDA
ENCODING 7898
SWIDTH 768 0
DWIDTH 11 0
BBX 12 13 0 0
BITMAP
0300
0600
0000
1E30
73B0
61A0
E1C0
E1C0
E1C0
E1C0
6180
7380
1E00
ENDCHAR
STARTCHAR uni1EDB
ENCODING 7899
SWIDTH 585 0
DWIDTH 9 0
BBX 11 10 0 0
BITMAP
0300
0600
0000
3C60
6660
E740
E780
E700
6600
3C00
ENDCHAR
STARTCHAR uni1EDC
ENCODING 7900
SWIDTH 768 0
DWIDTH 11 0
BBX 12 13 0 0
BITMAP
0600
0300
0000
1E30
73B0
61A0
E1C0
E1C0
E1C0
E1C0
6180
7380
1E00
ENDCHAR
STARTCHAR uni1EDD
ENCODING 7901
SWIDTH 585 0
DWIDTH 9 0
BBX 11 10 0 0
BITMAP
0C00
0600
0000
3C60
6660
E740
E780
E700
6600
3C00
ENDCHAR
STARTCHAR uni1EE0
ENCODING 7904
SWIDTH 768 0
DWIDTH 11 0
BBX 12 13 0 0
BITMAP
0680
0B00
0000
1E30
73B0
61A0
E1C0
E1C0
E1C0
E1C0
6180
7380
1E00
ENDCHAR
STARTCHAR uni1EE1
ENCODING 7905
SWIDTH 585 0
DWIDTH 9 0
BBX 11 10 0 0
BITMAP
0680
0B00
0000
3C60
6660
E740
E780
E700
6600
3C00
ENDCHAR
STARTCHAR uni1EE2
ENCODING 7906
SWIDTH 768 0
DWIDTH 11 0
BBX 12 13 0 -3
BITMAP
1E30
73B0
61A0
E1C0
E1C0
E1C0
E1C0
6180
7380
1E00
0000
0C00
0C00
ENDCHAR
STARTCHAR uni1EE3
ENCODING 7907
SWIDTH 585 0
DWIDTH 9 0
BBX 11 10 0 -3
BITMAP
3C60
6660
E740
E780
E700
6600
3C00
0000
0C00
0C00
ENDCHAR
STARTCHAR uni1EE4
ENCODING 7908
SWIDTH 786 0
DWIDTH 12 0
BBX 11 13 0 -3
BITMAP
FBE0
71C0
71C0
71C0
71C0
71C0
71C0
71C0
3180
1F00
0000
0600
0600
ENDCHAR
STARTCHAR uni1EE5
ENCODING 7909
SWIDTH 629 0
DWIDTH 10 0
BBX 10 10 0 -3
BITMAP
F780
7380
7380
7380
7380
7780
3BC0
0000
0C00
0C00
ENDCHAR
STARTCHAR uni1EE8
ENCODING 7912
SWIDTH 786 0
DWIDTH 12 0
BBX 13 13 0 0
BITMAP
0300
0600
0000
FBF8
71D8
71D0
71E0
71C0
71C0
71C0
71C0
3180
1F00
ENDCHAR
STARTCHAR uni1EE9
ENCODING 7913
SWIDTH 629 0
DWIDTH 10 0
BBX 12 10 0 0
BITMAP
0300
0600
0000
F7B0
73B0
73A0
73C0
7380
7780
3BC0
ENDCHAR
STARTCHAR uni1EEA
ENCODING 7914
SWIDTH 786 0
DWIDTH 12 0
BBX 13 13 0 0
BITMAP
0600
0300
0000
FBF8
71D8
71D0
71E0
71C0
71C0
71C0
71C0
3180
1F00
ENDCHAR
STARTCHAR uni1EEB
ENCODING 7915
SWIDTH 629 0
DWIDTH 10 0
BBX 12 10 0 0
BITMAP
0C00
0600
0000
F7B0
73B0
73A0
73C0
7380
7780
3BC0
ENDCHAR
STARTCHAR uni1EEE
ENCODING 7918
SWIDTH 786 0
DWIDTH 12 0
BBX 13 13 0 0
BITMAP
0680
0B00
0000
FBF8
71D8
71D0
71E0
71C0
71C0
71C0
71C0
3180
1F00
ENDCHAR
STARTCHAR uni1EEF
ENCODING 7919
SWIDTH 629 0
DWIDTH 10 0
BBX 12 10 0 0
BITMAP
0680
0B00
0000
F7B0
73B0
73A0
73C0
7380
7780
3BC0
ENDCHAR
STARTCHAR uni1EF0
ENCODING 7920
SWIDTH 786 0
DWIDTH 12 0
BBX 13 13 0 -3
BITMAP
FBF8
71D8
71D0
71E0
71C0
71C0
71C0
71C0
3180
1F00
0000
0600
0600
ENDCHAR
STARTCHAR uni1EF1
ENCODING 7921
SWIDTH 629 0
DWIDTH 10 0
BBX 12 10 0 -3
BITMAP
F7B0
73B0
73A0
73C0
7380
7780
3BC0
0000
0600
0600
ENDCHAR
STARTCHAR Ygrave
ENCODING 7922
SWIDTH 617 0
DWIDTH 9 0
BBX 9 13 0 0
BITMAP
3000
1800
0000
FB80
7100
7100
3A00
3A00
1C00
1C00
1C00
1C00
3E00
ENDCHAR
STARTCHAR ygrave
ENCODING 7923
SWIDTH 524 0
DWIDTH 8 0
BBX 8 13 0 -3
BITMAP
30
18
00
F7
72
72
3C
3C
18
18
10
F0
60
ENDCHAR
STARTCHAR uni1EF4
ENCODING 7924
SWIDTH 617 0
DWIDTH 9 0
BBX 9 13 0 -3
BITMAP
FB80
7100
7100
3A00
3A00
1C00
1C00
1C00
1C00
3E00
0000
0C00
0C00
ENDCHAR
STARTCHAR uni1EF5
ENCODING 7925
SWIDTH 524 0
DWIDTH 8 0
BBX 8 13 0 -6
BITMAP
F7
72
72
3C
3C
18
18
10
F0
60
00
30
30
ENDCHAR
STARTCHAR uni1EF8
ENCODING 7928
SWIDTH 617 0
DWIDTH 9 0
BBX 9 13 0 0
BITMAP
1A00
2C00
0000
FB80
7100
7100
3A00
3A00
1C00
1C00
1C00
1C00
3E00
ENDCHAR
STARTCHAR uni1EF9
ENCODING 7929
SWIDTH 524 0
DWIDTH 8 0
BBX 8 13 0 -3
BITMAP
1A
2C
00
F7
72
72
3C
3C
18
18
10
F0
60
ENDCHAR
STARTCHAR uni2000
ENCODING 8192
SWIDTH 500 0
DWIDTH 7 0
BBX 1 1 0 0
BITMAP
00
ENDCHAR
STARTCHAR uni2001
ENCODING 8193
SWIDTH 1000 0
DWIDTH 15 0
BBX 1 1 0 0
BITMAP
00
ENDCHAR
STARTCHAR uni2002
ENCODING 8194
SWIDTH 500 0
DWIDTH 7 0
BBX 1 1 0 0
BITMAP
00
ENDCHAR
STARTCHAR uni2003
ENCODING 8195
SWIDTH 1000 0
DWIDTH 15 0
BBX 1 1 0 0
BITMAP
00
ENDCHAR
STARTCHAR uni2004
ENCODING 8196
SWIDTH 333 0
DWIDTH 5 0
BBX 1 1 0 0
BITMAP
00
ENDCHAR
STARTCHAR uni2005
ENCODING 8197
SWIDTH 250 0
DWIDTH 4 0
BBX 1 1 0 0
BITMAP
00
ENDCHAR
STARTCHAR uni2006
ENCODING 8198
SWIDTH 167 0
DWIDTH 2 0
BBX 1 1 0 0
BITMAP
00
ENDCHAR
STARTCHAR uni2007
ENCODING 8199
SWIDTH 560 0
DWIDTH 8 0
BBX 1 1 0 0
BITMAP
00
ENDCHAR
STARTCHAR uni2008
ENCODING 8200
SWIDTH 280 0
DWIDTH 4 0
BBX 1 1 0 0
BITMAP
00
ENDCHAR
STARTCHAR uni2009
ENCODING 8201
SWIDTH 200 0
DWIDTH 3 0
BBX 1 1 0 0
BITMAP
00
ENDCHAR
STARTCHAR uni200A
ENCODING 8202
SWIDTH 100 0
DWIDTH 1 0
BBX 1 1 0 0
BITMAP
00
ENDCHAR
STARTCHAR uni200B
ENCODING 8203
SWIDTH 0 0
DWIDTH 0 0
BBX 1 1 0 0
BITMAP
00
ENDCHAR
STARTCHAR uni2010
ENCODING 8208
SWIDTH 392 0
DWIDTH 6 0
BBX 4 1 1 3
BITMAP
F0
ENDCHAR
STARTCHAR uni2011
ENCODING 8209
SWIDTH 392 0
DWIDTH 6 0
BBX 4 1 1 3
BITMAP
F0
ENDCHAR
STARTCHAR figuredash
ENCODING 8210
SWIDTH 500 0
DWIDTH 7 0
BBX 7 1 0 3
BITMAP
FE
ENDCHAR
STARTCHAR endash
ENCODING 8211
SWIDTH 500 0
DWIDTH 7 0
BBX 7 1 0 3
BITMAP
FE
ENDCHAR
STARTCHAR emdash
ENCODING 8212
SWIDTH 1000 0
DWIDTH 14 0
BBX 14 1 0 3
BITMAP
FFFC
ENDCHAR
STARTCHAR afii00208
ENCODING 8213
SWIDTH 1000 0
DWIDTH 14 0
BBX 14 1 0 3
BITMAP
FFFC
ENDCHAR
STARTCHAR quoteleft
ENCODING 8216
SWIDTH 252 0
DWIDTH 4 0
BBX 3 4 0 6
BITMAP
20
40
C0
C0
ENDCHAR
STARTCHAR quoteright
ENCODING 8217
SWIDTH 252 0
DWIDTH 4 0
BBX 3 4 0 6
BITMAP
60
60
40
80
ENDCHAR
STARTCHAR quotesinglbase
ENCODING 8218
SWIDTH 252 0
DWIDTH 4 0
BBX 3 4 0 -2
BITMAP
60
60
40
80
ENDCHAR
STARTCHAR quotereversed
ENCODING 8219
SWIDTH 252 0
DWIDTH 4 0
BBX 3 4 0 6
BITMAP
C0
C0
40
20
ENDCHAR
STARTCHAR quotedblleft
ENCODING 8220
SWIDTH 473 0
DWIDTH 7 0
BBX 6 4 0 6
BITMAP
24
48
D8
D8
ENDCHAR
STARTCHAR quotedblright
ENCODING 8221
SWIDTH 473 0
DWIDTH 7 0
BBX 6 4 0 6
BITMAP
6C
6C
48
90
ENDCHAR
STARTCHAR quotedblbase
ENCODING 8222
SWIDTH 473 0
DWIDTH 7 0
BBX 6 4 0 -2
BITMAP
6C
6C
48
90
ENDCHAR
STARTCHAR uni201F
ENCODING 8223
SWIDTH 473 0
DWIDTH 7 0
BBX 6 4 0 6
BITMAP
D8
D8
48
24
ENDCHAR
STARTCHAR dagger
ENCODING 8224
SWIDTH 510 0
DWIDTH 7 0
BBX 6 12 0 -2
BITMAP
30
30
30
FC
30
30
30
30
30
30
30
30
ENDCHAR
STARTCHAR daggerdbl
ENCODING 8225
SWIDTH 486 0
DWIDTH 7 0
BBX 6 12 0 -2
BITMAP
30
30
30
FC
30
30
30
30
FC
30
30
30
ENDCHAR
STARTCHAR bullet
ENCODING 8226
SWIDTH 455 0
DWIDTH 7 0
BBX 5 5 1 3
BITMAP
70
F8
F8
F8
70
ENDCHAR
STARTCHAR ellipsis
ENCODING 8230
SWIDTH 1000 0
DWIDTH 15 0
BBX 12 2 1 0
BITMAP
C630
C630
ENDCHAR
STARTCHAR perthousand
ENCODING 8240
SWIDTH 1289 0
DWIDTH 19 0
BBX 17 10 1 0
BITMAP
708000
DF8000
D90000
DA0000
740000
05C700
0B6D80
136D80
236D80
21C700
ENDCHAR
STARTCHAR guilsinglleft
ENCODING 8249
SWIDTH 287 0
DWIDTH 4 0
BBX 4 6 0 0
BITMAP
30
60
C0
C0
60
30
ENDCHAR
STARTCHAR guilsinglright
ENCODING 8250
SWIDTH 287 0
DWIDTH 4 0
BBX 4 6 0 0
BITMAP
C0
60
30
30
60
C0
ENDCHAR
STARTCHAR fraction
ENCODING 8260
SWIDTH 100 0
DWIDTH 1 0
BBX 5 10 -2 0
BITMAP
08
08
10
10
20
20
40
40
80
80
ENDCHAR
STARTCHAR oneinferior
ENCODING 8321
SWIDTH 402 0
DWIDTH 6 0
BBX 4 6 1 -3
BITMAP
60
E0
60
60
60
F0
ENDCHAR
STARTCHAR twoinferior
ENCODING 8322
SWIDTH 402 0
DWIDTH 6 0
BBX 4 6 1 -3
BITMAP
60
B0
30
60
C0
F0
ENDCHAR
STARTCHAR threeinferior
ENCODING 8323
SWIDTH 402 0
DWIDTH 6 0
BBX 4 6 1 -3
BITMAP
E0
B0
60
30
B0
E0
ENDCHAR
STARTCHAR uni20A5
ENCODING 8357
SWIDTH 948 0
DWIDTH 15 0
BBX 15 11 0 -2
BITMAP
0040
0040
F778
7BDC
739C
739C
739C
739C
FBDE
0200
0200
ENDCHAR
STARTCHAR uni20A6
ENCODING 8358
SWIDTH 739 0
DWIDTH 11 0
BBX 10 10 0 0
BITMAP
F1C0
7880
7880
7F80
5C80
4E80
7F80
4780
4780
E380
ENDCHAR
STARTCHAR uni20A9
ENCODING 8361
SWIDTH 933 0
DWIDTH 14 0
BBX 15 10 -1 0
BITMAP
F9CE
71C4
71C4
3FE4
3AE8
3AE8
3FE8
1C70
1C70
1C70
ENDCHAR
STARTCHAR Euro
ENCODING 8364
SWIDTH 689 0
DWIDTH 10 0
BBX 10 10 -1 0
BITMAP
0F80
38C0
3040
FE00
7000
7000
FE00
3040
38C0
0F80
ENDCHAR
STARTCHAR uni20AD
ENCODING 8365
SWIDTH 707 0
DWIDTH 10 0
BBX 10 10 0 0
BITMAP
FBC0
7180
7300
7600
FFC0
7E00
7700
7300
7380
F9C0
ENDCHAR
STARTCHAR uni2103
ENCODING 8451
SWIDTH 1065 0
DWIDTH 16 0
BBX 14 10 1 0
BITMAP
60F8
938C
9304
6700
0700
0700
0700
0304
038C
00F8
ENDCHAR
STARTCHAR uni2109
ENCODING 8457
SWIDTH 969 0
DWIDTH 15 0
BBX 13 10 1 0
BITMAP
67F8
9388
9380
6390
03F0
0390
0380
0380
0380
07C0
ENDCHAR
STARTCHAR trademark
ENCODING 8482
SWIDTH 1090 0
DWIDTH 16 0
BBX 15 6 0 4
BITMAP
FF8E
B5DC
31DC
316C
316C
7B8E
ENDCHAR
STARTCHAR uni212A
ENCODING 8490
SWIDTH 707 0
DWIDTH 10 0
BBX 10 10 0 0
BITMAP
FBC0
7180
7300
7600
7C00
7E00
7700
7300
7380
F9C0
ENDCHAR
STARTCHAR uni212B
ENCODING 8491
SWIDTH 644 0
DWIDTH 9 0
BBX 10 12 -1 0
BITMAP
0C00
1200
0C00
0C00
0C00
1E00
1E00
2700
3F00
4380
4380
E7C0
ENDCHAR
STARTCHAR uni2132
ENCODING 8498
SWIDTH 593 0
DWIDTH 9 0
BBX 8 10 0 0
BITMAP
1F
0E
0E
0E
4E
7E
4E
0E
8E
FF
ENDCHAR
STARTCHAR universal
ENCODING 8704
SWIDTH 644 0
DWIDTH 9 0
BBX 10 10 -1 0
BITMAP
E7C0
4380
4380
3F00
2700
2700
1E00
1E00
0C00
0C00
ENDCHAR
STARTCHAR existential
ENCODING 8707
SWIDTH 629 0
DWIDTH 9 0
BBX 8 10 0 0
BITMAP
FF
8E
0E
4E
7E
4E
0E
8E
8E
FF
ENDCHAR
STARTCHAR uni2204
ENCODING 8708
SWIDTH 629 0
DWIDTH 9 0
BBX 8 11 0 0
BITMAP
04
FF
8E
0E
4E
7E
5E
1E
9E
AE
FF
ENDCHAR
STARTCHAR minus
ENCODING 8722
SWIDTH 600 0
DWIDTH 9 0
BBX 8 1 0 3
BITMAP
FF
ENDCHAR
STARTCHAR fraction
ENCODING 8725
SWIDTH 100 0
DWIDTH 1 0
BBX 5 10 -2 0
BITMAP
08
08
10
10
20
20
40
40
80
80
ENDCHAR
STARTCHAR periodcentered
ENCODING 8729
SWIDTH 280 0
DWIDTH 4 0
BBX 2 2 1 3
BITMAP
C0
C0
ENDCHAR
STARTCHAR uni2236
ENCODING 8758
SWIDTH 280 0
DWIDTH 4 0
BBX 2 7 1 0
BITMAP
C0
C0
00
00
00
C0
C0
ENDCHAR
STARTCHAR uni2259
ENCODING 8793
SWIDTH 600 0
DWIDTH 9 0
BBX 7 7 1 2
BITMAP
18
2C
00
FE
00
00
FE
ENDCHAR
STARTCHAR uni225A
ENCODING 8794
SWIDTH 600 0
DWIDTH 9 0
BBX 7 7 1 2
BITMAP
34
18
00
FE
00
00
FE
ENDCHAR
STARTCHAR notequal
ENCODING 8800
SWIDTH 600 0
DWIDTH 9 0
BBX 7 11 1 -1
BITMAP
04
04
04
08
FE
08
10
FE
10
20
20
ENDCHAR
STARTCHAR equivalence
ENCODING 8801
SWIDTH 600 0
DWIDTH 9 0
BBX 7 5 0 1
BITMAP
FE
00
FE
00
FE
ENDCHAR
STARTCHAR uni2262
ENCODING 8802
SWIDTH 600 0
DWIDTH 9 0
BBX 7 11 0 -2
BITMAP
04
04
04
FE
08
FE
10
FE
10
20
20
ENDCHAR
STARTCHAR lessequal
ENCODING 8804
SWIDTH 600 0
DWIDTH 9 0
BBX 8 9 0 -2
BITMAP
03
0C
30
C0
30
0C
03
00
FF
ENDCHAR
STARTCHAR greaterequal
ENCODING 8805
SWIDTH 600 0
DWIDTH 9 0
BBX 8 9 0 -2
BITMAP
C0
30
0C
03
0C
30
C0
00
FF
ENDCHAR
STARTCHAR uni226E
ENCODING 8814
SWIDTH 600 0
DWIDTH 9 0
BBX 8 11 0 -2
BITMAP
04
04
07
0C
38
C8
30
1C
13
20
20
ENDCHAR
STARTCHAR uni226F
ENCODING 8815
SWIDTH 600 0
DWIDTH 9 0
BBX 8 11 0 -2
BITMAP
04
04
C4
38
0C
0B
1C
30
D0
20
20
ENDCHAR
STARTCHAR uni2270
ENCODING 8816
SWIDTH 600 0
DWIDTH 9 0
BBX 8 11 0 -3
BITMAP
04
07
0C
38
C8
38
1C
13
10
FF
20
ENDCHAR
STARTCHAR uni2271
ENCODING 8817
SWIDTH 600 0
DWIDTH 9 0
BBX 8 11 0 -3
BITMAP
04
C4
34
0C
0B
0C
30
D0
10
FF
20
ENDCHAR
STARTCHAR fi
ENCODING -1
SWIDTH 639 0
DWIDTH 9 0
BBX 9 11 0 0
BITMAP
3E00
6700
6200
7000
FF00
7700
7700
7700
7700
7700
F780
ENDCHAR
STARTCHAR fl
ENCODING -1
SWIDTH 639 0
DWIDTH 9 0
BBX 10 11 0 0
BITMAP
3D80
6780
6380
7380
FB80
7380
7380
7380
7380
7380
FBC0
ENDCHAR
ENDFONT
